<svg width="379" height="378" viewBox="0 0 379 378" fill="none" xmlns="http://www.w3.org/2000/svg">
<path d="M87.8834 0.709229C60.6039 7.61863 53.0233 14.9919 48.2585 32.118L63.9718 329.819H354.327C372.382 320.181 377.922 305.824 378.238 261.539C369.275 172.673 358.336 122.017 342.03 32.118C333.807 19.6551 332.02 11.3335 299.672 10.2684L87.8834 0.709229Z" fill="#003399"/>
<path d="M0.372192 294.727L33.0393 49.0587C40.8568 30.5263 47.8227 22.0344 70.9331 12.4699C143.967 5.61801 203.124 4.15578 302.216 0.709229C327.755 8.38078 343.072 12.4876 355.79 49.0587C358.823 148.151 362.015 218.874 361.67 283.619C360.627 312.387 354.224 323.834 331.617 335.236C194.614 360.371 119.641 373.922 55.2529 377.705C16.4246 365.615 0.657071 348.94 0.372192 294.727Z" fill="white"/>
</svg>
