<svg width="304" height="352" viewBox="0 0 304 352" fill="none" xmlns="http://www.w3.org/2000/svg">
<g filter="url(#filter0_d_1510_141)">
<path d="M271.91 66.2313C277.952 133.783 280.93 170.625 282.378 226.625C280.3 248.378 276.347 257.778 260.629 265.869C197.386 293.077 153.26 314.021 101.495 333.696C79.6809 335.978 71.1971 331.312 62.6456 319.526C45.0604 276.332 36.5366 227.654 19.9329 166.487C15.6869 142.619 19.1831 132.252 36.8608 119.553C102.698 81.349 198.726 28.3592 198.726 28.3592C198.726 28.3592 216.866 16.5599 228.6 17.475C242.504 19.9425 248.916 23.833 257.323 32.3113C267.053 42.3394 270.222 49.7763 271.91 66.2313Z" fill="#003399"/>
</g>
<path d="M268.543 67.5626C265.897 135.332 264.139 172.253 258.414 227.978C253.571 249.287 248.448 258.104 231.824 264.119C165.621 283.016 119.18 298.145 65.3236 311.039C43.3963 310.513 35.5789 304.8 28.6049 292.017C16.6878 246.929 14.459 197.561 5.81393 134.772C4.65512 110.557 9.44836 100.723 28.6049 90.3885C98.7871 60.9174 200.803 20.6428 200.803 20.6428C200.803 20.6428 220.303 11.2601 231.824 13.6682C245.298 17.8935 251.16 22.572 258.414 32.0557C266.782 43.2458 268.974 51.0269 268.543 67.5626Z" fill="white"/>
<defs>
<filter id="filter0_d_1510_141" x="0.887403" y="0.0111217" width="298.904" height="351.659" filterUnits="userSpaceOnUse" color-interpolation-filters="sRGB">
<feFlood flood-opacity="0" result="BackgroundImageFix"/>
<feColorMatrix in="SourceAlpha" type="matrix" values="0 0 0 0 0 0 0 0 0 0 0 0 0 0 0 0 0 0 127 0" result="hardAlpha"/>
<feOffset/>
<feGaussianBlur stdDeviation="8.7066"/>
<feComposite in2="hardAlpha" operator="out"/>
<feColorMatrix type="matrix" values="0 0 0 0 0 0 0 0 0 0 0 0 0 0 0 0 0 0 0.1 0"/>
<feBlend mode="normal" in2="BackgroundImageFix" result="effect1_dropShadow_1510_141"/>
<feBlend mode="normal" in="SourceGraphic" in2="effect1_dropShadow_1510_141" result="shape"/>
</filter>
</defs>
</svg>
