<svg width="33" height="33" viewBox="0 0 33 33" fill="none" xmlns="http://www.w3.org/2000/svg">
<path d="M11.1235 15.329C10.4794 15.3311 9.84675 15.499 9.28637 15.8165C10.0753 13.7744 11.3838 11.9737 13.0824 10.5926C13.1796 10.5125 13.2601 10.4141 13.3193 10.303C13.3784 10.1919 13.4151 10.0702 13.4272 9.94486C13.4394 9.81955 13.4267 9.69307 13.3899 9.57265C13.3532 9.45224 13.2931 9.34024 13.213 9.24305C13.133 9.14587 13.0346 9.06539 12.9235 9.00623C12.8123 8.94707 12.6906 8.91038 12.5653 8.89826C12.44 8.88613 12.3135 8.8988 12.1931 8.93556C12.0727 8.97231 11.9607 9.03242 11.8635 9.11245C8.38089 11.9421 6.83111 15.8601 6.83111 18.2892C6.83711 19.1481 7.09307 19.9867 7.56772 20.7025C8.04238 21.4184 8.7152 21.9805 9.50404 22.3204C10.0146 22.5677 10.5736 22.6985 11.1409 22.7035C11.6402 22.7277 12.1392 22.6503 12.6077 22.476C13.0762 22.3016 13.5044 22.034 13.8663 21.6892C14.2282 21.3444 14.5164 20.9297 14.7133 20.4702C14.9102 20.0108 15.0117 19.5161 15.0117 19.0162C15.0117 18.5163 14.9102 18.0217 14.7133 17.5622C14.5164 17.1027 14.2282 16.688 13.8663 16.3432C13.5044 15.9985 13.0762 15.7308 12.6077 15.5564C12.1392 15.3821 11.6402 15.3047 11.1409 15.329H11.1235Z" fill="#003399"/>
<path d="M20.8226 15.3294C20.1784 15.3308 19.5455 15.4988 18.9855 15.817C19.7741 13.777 21.0792 11.9769 22.7728 10.5931C22.8789 10.5166 22.9681 10.4193 23.0351 10.3071C23.1021 10.195 23.1454 10.0702 23.1624 9.94067C23.1794 9.81111 23.1697 9.67943 23.1339 9.55376C23.0981 9.42808 23.037 9.31106 22.9543 9.20989C22.8715 9.10873 22.769 9.02556 22.6529 8.96551C22.5369 8.90546 22.4098 8.8698 22.2794 8.86071C22.149 8.85163 22.0182 8.86932 21.8949 8.9127C21.7717 8.95607 21.6586 9.02421 21.5626 9.11293C18.08 11.9426 16.5302 15.8605 16.5302 18.2897C16.5343 19.1389 16.7828 19.9689 17.246 20.6806C17.7092 21.3924 18.3675 21.9557 19.1422 22.3034C19.6656 22.558 20.2405 22.689 20.8226 22.6865C21.3219 22.7108 21.8209 22.6334 22.2894 22.459C22.7578 22.2847 23.186 22.017 23.548 21.6722C23.9099 21.3275 24.1981 20.9128 24.395 20.4533C24.5919 19.9938 24.6934 19.4991 24.6934 18.9993C24.6934 18.4994 24.5919 18.0047 24.395 17.5453C24.1981 17.0858 23.9099 16.6711 23.548 16.3263C23.186 15.9815 22.7578 15.7138 22.2894 15.5395C21.8209 15.3651 21.3219 15.2878 20.8226 15.312V15.3294Z" fill="#003399"/>
</svg>
