<svg width="12" height="12" viewBox="0 0 12 12" fill="none" xmlns="http://www.w3.org/2000/svg">
<path d="M10 5.4995H11C11 2.9345 9.0635 1 6.495 1V2C8.526 2 10 3.4715 10 5.4995Z" fill="white"/>
<path d="M6.5 4.00012C7.5515 4.00012 8 4.44862 8 5.50012H9C9 3.88762 8.1125 3.00012 6.5 3.00012V4.00012ZM8.211 6.72162C8.11493 6.6343 7.98868 6.58772 7.85891 6.59173C7.72914 6.59575 7.606 6.65003 7.5155 6.74312L6.319 7.97362C6.031 7.91862 5.452 7.73812 4.856 7.14362C4.26 6.54712 4.0795 5.96662 4.026 5.68062L5.2555 4.48362C5.34871 4.39318 5.40307 4.27003 5.40708 4.14022C5.4111 4.01042 5.36445 3.88414 5.277 3.78812L3.4295 1.75662C3.34203 1.6603 3.22044 1.60187 3.09058 1.59375C2.96072 1.58563 2.8328 1.62845 2.734 1.71312L1.649 2.64362C1.56256 2.73038 1.51096 2.84584 1.504 2.96812C1.4965 3.09312 1.3535 6.05412 3.6495 8.35112C5.6525 10.3536 8.1615 10.5001 8.8525 10.5001C8.9535 10.5001 9.0155 10.4971 9.032 10.4961C9.15426 10.4893 9.26967 10.4375 9.356 10.3506L10.286 9.26512C10.3707 9.16638 10.4136 9.03851 10.4056 8.90865C10.3976 8.77878 10.3393 8.65717 10.243 8.56962L8.211 6.72162Z" fill="white"/>
</svg>
