<svg width="30" height="30" viewBox="0 0 30 30" fill="none" xmlns="http://www.w3.org/2000/svg">
<path d="M17.2736 1.19452C16.3264 0.930953 15.5807 1.60167 15.3236 2.2531L15.045 2.96024C12.8957 8.41595 10.9339 13.396 5.81786 15.9867C4.63822 16.5845 3.81644 17.8767 4.05215 19.292L4.49786 21.9674C4.62267 22.7172 4.95762 23.4162 5.4638 23.9833C5.96998 24.5503 6.62663 24.9622 7.35751 25.171L15.5968 27.5238C16.5555 27.7977 17.5605 27.8704 18.5487 27.7373C19.5369 27.6042 20.4869 27.2683 21.339 26.7505C22.1911 26.2327 22.9269 25.5444 23.5003 24.7286C24.0737 23.9129 24.4721 22.9874 24.6707 22.0102L25.9864 15.5324C26.1051 14.9488 26.0925 14.3461 25.9496 13.768C25.8067 13.1898 25.5371 12.6507 25.1602 12.1896C24.7834 11.7284 24.3087 11.3568 23.7706 11.1017C23.2326 10.8465 22.6445 10.7141 22.0489 10.7142H19.7272C20.0968 9.10274 20.2672 7.26738 20.0989 5.64631C19.9007 3.74988 19.1786 1.72595 17.2736 1.19452Z" fill="white"/>
</svg>
