<svg width="30" height="30" viewBox="0 0 30 30" fill="none" xmlns="http://www.w3.org/2000/svg">
<path d="M6.25 25.625V4.375C6.25 3 7.375 1.875 8.75 1.875H21.25C22.625 1.875 23.75 3 23.75 4.375V25.625C23.75 27 22.625 28.125 21.25 28.125H8.75C7.375 28.125 6.25 27 6.25 25.625Z" fill="#ADB3B7"/>
<path d="M21.25 3.75H8.75C8.375 3.75 8.125 4 8.125 4.375V25.625C8.125 26 8.375 26.25 8.75 26.25H21.25C21.625 26.25 21.875 26 21.875 25.625V4.375C21.875 4 21.625 3.75 21.25 3.75Z" fill="white"/>
<path d="M18.125 18.75H11.875C11.5 18.75 11.25 18.5 11.25 18.125V14.375C11.25 14 11.5 13.75 11.875 13.75H18.125C18.5 13.75 18.75 14 18.75 14.375V18.125C18.75 18.5 18.5 18.75 18.125 18.75Z" fill="#6C6A69"/>
<path d="M15 10C13.625 10 12.5 11.125 12.5 12.5V14.375H13.75V12.5C13.75 11.8125 14.3125 11.25 15 11.25C15.6875 11.25 16.25 11.8125 16.25 12.5V14.375H17.5V12.5C17.5 11.125 16.375 10 15 10Z" fill="#6C6A69"/>
</svg>
