<svg width="30" height="30" viewBox="0 0 30 30" fill="none" xmlns="http://www.w3.org/2000/svg">
<path fill-rule="evenodd" clip-rule="evenodd" d="M15 0C13.7063 0 11.5444 0.496875 9.51001 1.05C7.42876 1.6125 5.33064 2.27812 4.09689 2.68125C3.58106 2.8516 3.12374 3.164 2.77748 3.58256C2.43122 4.00113 2.21005 4.50889 2.13939 5.0475C1.02188 13.4419 3.61501 19.6631 6.76126 23.7788C8.09548 25.5393 9.68631 27.0897 11.4806 28.3781C12.2044 28.89 12.8756 29.2819 13.4456 29.55C13.9706 29.7975 14.535 30 15 30C15.465 30 16.0275 29.7975 16.5544 29.55C17.2415 29.216 17.8989 28.824 18.5194 28.3781C20.3137 27.0897 21.9046 25.5393 23.2388 23.7788C26.385 19.6631 28.9781 13.4419 27.8606 5.0475C27.7901 4.50863 27.569 4.00058 27.2227 3.58169C26.8765 3.1628 26.4191 2.85006 25.9031 2.67938C24.1122 2.09215 22.3073 1.54824 20.49 1.04813C18.4556 0.49875 16.2938 0 15 0ZM19.0238 9.64875C19.1998 9.47271 19.4386 9.37382 19.6875 9.37382C19.9365 9.37382 20.1752 9.47271 20.3513 9.64875C20.5273 9.82479 20.6262 10.0635 20.6262 10.3125C20.6262 10.5615 20.5273 10.8002 20.3513 10.9763L14.7263 16.6013C14.6392 16.6886 14.5357 16.7578 14.4218 16.8051C14.3079 16.8523 14.1858 16.8767 14.0625 16.8767C13.9392 16.8767 13.8171 16.8523 13.7032 16.8051C13.5893 16.7578 13.4858 16.6886 13.3988 16.6013L10.5863 13.7888C10.4991 13.7016 10.43 13.5981 10.3828 13.4842C10.3356 13.3703 10.3113 13.2483 10.3113 13.125C10.3113 13.0017 10.3356 12.8797 10.3828 12.7658C10.43 12.6519 10.4991 12.5484 10.5863 12.4613C10.6734 12.3741 10.7769 12.3049 10.8908 12.2578C11.0047 12.2106 11.1267 12.1863 11.25 12.1863C11.3733 12.1863 11.4953 12.2106 11.6092 12.2578C11.7231 12.3049 11.8266 12.3741 11.9138 12.4613L14.0625 14.6119L19.0238 9.64875Z" fill="white"/>
</svg>
