<svg width="30" height="30" viewBox="0 0 30 30" fill="none" xmlns="http://www.w3.org/2000/svg">
<path d="M15 3.75391C14.5081 3.75391 14.0209 3.85081 13.5664 4.03907C13.1119 4.22734 12.6989 4.50329 12.351 4.85116C12.0032 5.19903 11.7272 5.61201 11.539 6.06653C11.3507 6.52104 11.2538 7.00819 11.2538 7.50016C11.2538 7.99212 11.3507 8.47927 11.539 8.93378C11.7272 9.3883 12.0032 9.80128 12.351 10.1492C12.6989 10.497 13.1119 10.773 13.5664 10.9612C14.0209 11.1495 14.5081 11.2464 15 11.2464C15.9936 11.2464 16.9465 10.8517 17.649 10.1492C18.3516 9.4466 18.7463 8.49372 18.7463 7.50016C18.7463 6.50659 18.3516 5.55372 17.649 4.85116C16.9465 4.1486 15.9936 3.75391 15 3.75391Z" fill="white"/>
<path d="M23.4375 5.625C22.6916 5.625 21.9762 5.92132 21.4488 6.44876C20.9213 6.97621 20.625 7.69158 20.625 8.4375C20.625 9.18342 20.9213 9.89879 21.4488 10.4262C21.9762 10.9537 22.6916 11.25 23.4375 11.25C24.1834 11.25 24.8988 10.9537 25.4262 10.4262C25.9537 9.89879 26.25 9.18342 26.25 8.4375C26.25 7.69158 25.9537 6.97621 25.4262 6.44876C24.8988 5.92132 24.1834 5.625 23.4375 5.625Z" fill="white"/>
<path d="M6.5625 5.625C5.81658 5.625 5.10121 5.92132 4.57376 6.44876C4.04632 6.97621 3.75 7.69158 3.75 8.4375C3.75 9.18342 4.04632 9.89879 4.57376 10.4262C5.10121 10.9537 5.81658 11.25 6.5625 11.25C7.30842 11.25 8.02379 10.9537 8.55124 10.4262C9.07868 9.89879 9.375 9.18342 9.375 8.4375C9.375 7.69158 9.07868 6.97621 8.55124 6.44876C8.02379 5.92132 7.30842 5.625 6.5625 5.625Z" fill="white"/>
<path d="M9.375 14.9869C9.37847 14.4919 9.57754 14.0183 9.92879 13.6695C10.28 13.3207 10.755 13.125 11.25 13.125H18.75C19.2473 13.125 19.7242 13.3225 20.0758 13.6742C20.4275 14.0258 20.625 14.5027 20.625 15V20.625C20.6249 21.2151 20.5325 21.8016 20.3512 22.3631C19.9361 23.6357 19.0808 24.7186 17.9391 25.4173C16.7974 26.116 15.4439 26.3849 14.1218 26.1755C12.7997 25.9662 11.5955 25.2923 10.7255 24.275C9.85553 23.2577 9.37669 21.9636 9.375 20.625V15V14.9869Z" fill="white"/>
<path d="M7.5 15C7.5 14.3156 7.68188 13.6762 8.0025 13.125H3.75C3.25272 13.125 2.77581 13.3225 2.42417 13.6742C2.07254 14.0258 1.875 14.5027 1.875 15V19.6875C1.87474 20.4549 2.06292 21.2107 2.42301 21.8884C2.7831 22.5662 3.30408 23.1451 3.9402 23.5744C4.57633 24.0038 5.30813 24.2703 6.07136 24.3508C6.83458 24.4312 7.60587 24.323 8.3175 24.0356C7.77784 22.9792 7.4976 21.8094 7.5 20.6231V15Z" fill="white"/>
<path d="M22.5 15V20.625C22.5 21.8531 22.2056 23.0119 21.6825 24.0356C22.3941 24.323 23.1654 24.4312 23.9286 24.3508C24.6919 24.2703 25.4237 24.0038 26.0598 23.5744C26.6959 23.1451 27.2169 22.5662 27.577 21.8884C27.9371 21.2107 28.1252 20.4549 28.125 19.6875V15C28.125 14.5027 27.9274 14.0258 27.5758 13.6742C27.2242 13.3225 26.7473 13.125 26.25 13.125H21.9975C22.3162 13.6762 22.5 14.3156 22.5 15Z" fill="white"/>
</svg>
