<svg width="22" height="21" viewBox="0 0 22 21" fill="none" xmlns="http://www.w3.org/2000/svg">
<path d="M14.9276 6.83276C16.3344 6.83276 17.6836 7.37267 18.6784 8.33371C19.6731 9.29474 20.232 10.5982 20.232 11.9573V17.9359H16.6958V11.9573C16.6958 11.5043 16.5095 11.0698 16.1779 10.7494C15.8463 10.4291 15.3966 10.2491 14.9276 10.2491C14.4587 10.2491 14.009 10.4291 13.6774 10.7494C13.3458 11.0698 13.1595 11.5043 13.1595 11.9573V17.9359H9.62329V11.9573C9.62329 10.5982 10.1821 9.29474 11.1769 8.33371C12.1717 7.37267 13.5208 6.83276 14.9276 6.83276V6.83276Z" stroke="#003399" stroke-linecap="round" stroke-linejoin="round"/>
<path d="M6.08701 7.68677H2.55078V17.9358H6.08701V7.68677Z" stroke="#003399" stroke-linecap="round" stroke-linejoin="round"/>
<path d="M4.3189 5.12449C5.2954 5.12449 6.08701 4.35971 6.08701 3.41631C6.08701 2.47291 5.2954 1.70813 4.3189 1.70813C3.34239 1.70813 2.55078 2.47291 2.55078 3.41631C2.55078 4.35971 3.34239 5.12449 4.3189 5.12449Z" stroke="#003399" stroke-linecap="round" stroke-linejoin="round"/>
</svg>
