<svg width="22" height="21" viewBox="0 0 22 21" fill="none" xmlns="http://www.w3.org/2000/svg">
<g clip-path="url(#clip0_186_212)">
<path d="M20.4058 2.5623C19.5592 3.13922 18.6219 3.58047 17.6299 3.86906C17.0974 3.27761 16.3898 2.85841 15.6028 2.66814C14.8157 2.47788 13.9871 2.52574 13.2291 2.80525C12.4711 3.08476 11.8202 3.58243 11.3645 4.23095C10.9088 4.87947 10.6703 5.64756 10.6812 6.43133V7.28542C9.12757 7.32434 7.5881 6.99145 6.1999 6.31641C4.81169 5.64136 3.61784 4.64511 2.72466 3.41639C2.72466 3.41639 -0.811573 11.1032 7.14495 14.5196C5.32426 15.7135 3.15533 16.3122 0.956543 16.2277C8.91306 20.4982 18.6377 16.2277 18.6377 6.4057C18.6369 6.1678 18.6132 5.93048 18.567 5.69681C19.4693 4.83716 20.106 3.7518 20.4058 2.5623V2.5623Z" stroke="#003399" stroke-linecap="round" stroke-linejoin="round"/>
</g>
<defs>
<clipPath id="clip0_186_212">
<rect width="21.2174" height="20.4982" fill="white" transform="translate(0.0725098)"/>
</clipPath>
</defs>
</svg>
