<svg width="128" height="73" viewBox="0 0 128 73" fill="none" xmlns="http://www.w3.org/2000/svg">
<path d="M128 0L105.779 16.523H128V0Z" fill="#003399"/>
<rect width="128" height="56.0432" transform="translate(0 16.5229)" fill="#003399"/>
<path d="M29.4452 39.7788V38.1516H31.3323V33.1331H29.705V31.8888C30.1791 31.7976 30.5802 31.6882 30.9084 31.5606C31.2366 31.433 31.5556 31.278 31.8656 31.0957H33.3424V38.1516H34.9696V39.7788H29.4452ZM39.7497 39.9429C38.8199 39.9429 38.0678 39.5555 37.4935 38.7806C36.9283 38.0057 36.6457 36.8799 36.6457 35.4031C36.6457 33.9262 36.9283 32.8141 37.4935 32.0665C38.0678 31.3099 38.8199 30.9316 39.7497 30.9316C40.6796 30.9316 41.4271 31.3099 41.9923 32.0665C42.5666 32.8141 42.8538 33.9262 42.8538 35.4031C42.8538 36.8799 42.5666 38.0057 41.9923 38.7806C41.4271 39.5555 40.6796 39.9429 39.7497 39.9429ZM39.7497 38.384C39.9776 38.384 40.1827 38.302 40.3651 38.1379C40.5474 37.9647 40.6887 37.6639 40.789 37.2354C40.8984 36.8069 40.9531 36.1962 40.9531 35.4031C40.9531 34.61 40.8984 34.0037 40.789 33.5844C40.6887 33.165 40.5474 32.8779 40.3651 32.7229C40.1827 32.5679 39.9776 32.4904 39.7497 32.4904C39.5309 32.4904 39.3304 32.5679 39.1481 32.7229C38.9657 32.8779 38.8199 33.165 38.7105 33.5844C38.6011 34.0037 38.5464 34.61 38.5464 35.4031C38.5464 36.1962 38.6011 36.8069 38.7105 37.2354C38.8199 37.6639 38.9657 37.9647 39.1481 38.1379C39.3304 38.302 39.5309 38.384 39.7497 38.384ZM44.8443 39.7788V30.8632H46.8544V34.5142H46.9091L49.5619 30.8632H51.7772L49.0833 34.4185L52.2694 39.7788H50.0679L47.8937 36.0184L46.8544 37.3858V39.7788H44.8443ZM59.3151 37.4018H57.2854V39.3916H55.3825V37.4018H53.3594V35.6792H55.3825V33.6962H57.2854V35.6792H59.3151V37.4018Z" fill="white"/>
<path d="M29.411 59.0579V52.3301H30.2623V55.1505H33.3902V52.3301H34.2517V59.0579H33.3902V55.8889H30.2623V59.0579H29.411ZM37.1679 59.1809C36.7508 59.1809 36.4021 59.0579 36.1218 58.8117C35.8483 58.5588 35.7116 58.2101 35.7116 57.7656C35.7116 57.2187 35.9543 56.8016 36.4397 56.5145C36.932 56.2205 37.708 56.0153 38.7677 55.8991C38.7677 55.6872 38.737 55.4855 38.6754 55.294C38.6207 55.1026 38.5182 54.9488 38.3678 54.8325C38.2242 54.7095 38.0157 54.6479 37.7422 54.6479C37.455 54.6479 37.185 54.7026 36.932 54.812C36.679 54.9214 36.4534 55.0445 36.2551 55.1812L35.9269 54.5966C36.1594 54.4462 36.4431 54.3026 36.7781 54.1659C37.12 54.0223 37.4892 53.9505 37.8858 53.9505C38.4943 53.9505 38.9353 54.1386 39.2087 54.5146C39.4822 54.8838 39.619 55.3795 39.619 56.0017V59.0579H38.9216L38.8498 58.463H38.819C38.5866 58.6545 38.3302 58.822 38.0498 58.9656C37.7764 59.1091 37.4824 59.1809 37.1679 59.1809ZM37.414 58.5041C37.6533 58.5041 37.8789 58.4459 38.0909 58.3297C38.3028 58.2135 38.5284 58.0494 38.7677 57.8374V56.4529C37.9405 56.5555 37.3593 56.7093 37.0243 56.9144C36.6961 57.1195 36.532 57.3828 36.532 57.7041C36.532 57.9844 36.6175 58.1895 36.7884 58.3195C36.9593 58.4425 37.1679 58.5041 37.414 58.5041ZM41.1871 61.1603V54.0736H41.8845L41.9563 54.6479H41.9871C42.2127 54.4565 42.4588 54.2924 42.7255 54.1557C42.999 54.0189 43.2827 53.9505 43.5767 53.9505C44.2194 53.9505 44.7082 54.183 45.0433 54.6479C45.3783 55.106 45.5458 55.7214 45.5458 56.4939C45.5458 57.0546 45.4432 57.5366 45.2381 57.94C45.0398 58.3434 44.7766 58.6511 44.4484 58.863C44.1271 59.075 43.775 59.1809 43.3921 59.1809C43.1596 59.1809 42.9272 59.1297 42.6947 59.0271C42.4691 58.9245 42.24 58.7844 42.0076 58.6066L42.0281 59.4783V61.1603H41.1871ZM43.2485 58.4733C43.6587 58.4733 43.9972 58.2989 44.2638 57.9502C44.5373 57.5947 44.674 57.1093 44.674 56.4939C44.674 55.947 44.5715 55.506 44.3664 55.171C44.1681 54.8291 43.8331 54.6582 43.3613 54.6582C43.1494 54.6582 42.934 54.7163 42.7152 54.8325C42.5033 54.9488 42.2742 55.1163 42.0281 55.3351V57.9502C42.2537 58.1417 42.4725 58.2784 42.6844 58.3605C42.8964 58.4357 43.0844 58.4733 43.2485 58.4733ZM46.8758 61.1603V54.0736H47.5732L47.645 54.6479H47.6758C47.9014 54.4565 48.1475 54.2924 48.4142 54.1557C48.6876 54.0189 48.9714 53.9505 49.2654 53.9505C49.9081 53.9505 50.3969 54.183 50.7319 54.6479C51.067 55.106 51.2345 55.7214 51.2345 56.4939C51.2345 57.0546 51.1319 57.5366 50.9268 57.94C50.7285 58.3434 50.4653 58.6511 50.1371 58.863C49.8158 59.075 49.4637 59.1809 49.0808 59.1809C48.8483 59.1809 48.6159 59.1297 48.3834 59.0271C48.1578 58.9245 47.9287 58.7844 47.6963 58.6066L47.7168 59.4783V61.1603H46.8758ZM48.9372 58.4733C49.3474 58.4733 49.6859 58.2989 49.9525 57.9502C50.226 57.5947 50.3627 57.1093 50.3627 56.4939C50.3627 55.947 50.2602 55.506 50.0551 55.171C49.8568 54.8291 49.5218 54.6582 49.05 54.6582C48.8381 54.6582 48.6227 54.7163 48.4039 54.8325C48.192 54.9488 47.9629 55.1163 47.7168 55.3351V57.9502C47.9424 58.1417 48.1612 58.2784 48.3731 58.3605C48.5851 58.4357 48.7731 58.4733 48.9372 58.4733ZM52.6065 61.2013C52.4971 61.2013 52.3911 61.191 52.2886 61.1705C52.1928 61.15 52.104 61.1261 52.0219 61.0987L52.186 60.4321C52.2407 60.4458 52.3022 60.4595 52.3706 60.4731C52.439 60.4937 52.5039 60.5039 52.5655 60.5039C52.8458 60.5039 53.0782 60.4014 53.2629 60.1962C53.4475 59.998 53.591 59.745 53.6936 59.4373L53.8064 59.0681L51.8065 54.0736H52.6783L53.6936 56.8324C53.7688 57.0443 53.8474 57.2734 53.9295 57.5195C54.0184 57.7656 54.1004 58.0049 54.1756 58.2374H54.2166C54.2918 58.0118 54.3636 57.7759 54.432 57.5298C54.5004 57.2836 54.5687 57.0512 54.6371 56.8324L55.5294 54.0736H56.3498L54.473 59.4681C54.3568 59.7963 54.2166 60.0903 54.0525 60.3501C53.8953 60.6099 53.697 60.815 53.4577 60.9654C53.2252 61.1227 52.9415 61.2013 52.6065 61.2013ZM61.9903 59.1809C61.4297 59.1809 60.9272 59.0442 60.4828 58.7707C60.0452 58.4904 59.6965 58.0904 59.4367 57.5708C59.1837 57.0512 59.0572 56.4256 59.0572 55.694C59.0572 54.9693 59.1871 54.3471 59.4469 53.8275C59.7067 53.3078 60.0623 52.9079 60.5135 52.6276C60.9648 52.3472 61.4741 52.2071 62.0416 52.2071C62.4518 52.2071 62.8142 52.2925 63.1287 52.4635C63.4432 52.6276 63.6962 52.819 63.8876 53.0378L63.4261 53.5916C63.2484 53.4001 63.0467 53.2463 62.8211 53.1301C62.5954 53.0139 62.339 52.9557 62.0519 52.9557C61.628 52.9557 61.2554 53.0685 60.934 53.2942C60.6195 53.513 60.3734 53.8241 60.1956 54.2274C60.0247 54.6308 59.9392 55.1128 59.9392 55.6735C59.9392 56.2341 60.0247 56.723 60.1956 57.1401C60.3665 57.5503 60.6058 57.8682 60.9135 58.0938C61.228 58.3195 61.5972 58.4323 62.0211 58.4323C62.3425 58.4323 62.6296 58.3639 62.8826 58.2272C63.1356 58.0904 63.368 57.9058 63.58 57.6733L64.0517 58.2066C63.7851 58.5143 63.4843 58.7536 63.1492 58.9245C62.8142 59.0955 62.4279 59.1809 61.9903 59.1809ZM66.58 59.1809C66.0535 59.1809 65.6672 59.0168 65.4211 58.6887C65.175 58.3536 65.0519 57.8682 65.0519 57.2324V54.0736H65.9031V57.1195C65.9031 57.5845 65.9749 57.9229 66.1185 58.1349C66.2689 58.3468 66.5082 58.4528 66.8364 58.4528C67.0962 58.4528 67.3252 58.3878 67.5235 58.2579C67.7286 58.1212 67.9474 57.9058 68.1799 57.6118V54.0736H69.0208V59.0579H68.3235L68.2517 58.2784H68.2209C67.9884 58.5519 67.7423 58.7707 67.4825 58.9348C67.2227 59.0989 66.9219 59.1809 66.58 59.1809ZM72.0047 59.1809C71.6492 59.1809 71.3107 59.116 70.9894 58.9861C70.668 58.8493 70.3877 58.6852 70.1484 58.4938L70.5689 57.9297C70.7877 58.1007 71.0133 58.2442 71.2458 58.3605C71.4782 58.4699 71.7415 58.5246 72.0355 58.5246C72.3636 58.5246 72.6098 58.4494 72.7739 58.2989C72.938 58.1417 73.02 57.9571 73.02 57.7451C73.02 57.5742 72.9619 57.4306 72.8457 57.3144C72.7363 57.1982 72.5927 57.1024 72.4149 57.0272C72.244 56.9452 72.0662 56.87 71.8816 56.8016C71.6492 56.7127 71.4201 56.6136 71.1945 56.5042C70.9689 56.388 70.7843 56.241 70.6407 56.0632C70.4971 55.8786 70.4253 55.6461 70.4253 55.3658C70.4253 54.9624 70.5757 54.6274 70.8766 54.3608C71.1842 54.0873 71.6081 53.9505 72.1483 53.9505C72.4559 53.9505 72.7431 54.0052 73.0097 54.1146C73.2764 54.224 73.5054 54.3573 73.6969 54.5146L73.2866 55.0479C73.1157 54.918 72.938 54.812 72.7534 54.73C72.5687 54.6479 72.3671 54.6069 72.1483 54.6069C71.8338 54.6069 71.6013 54.6787 71.4509 54.8223C71.3073 54.9658 71.2355 55.1334 71.2355 55.3248C71.2355 55.4821 71.2868 55.612 71.3893 55.7145C71.4919 55.8102 71.6252 55.8957 71.7893 55.9709C71.9534 56.0393 72.1278 56.1111 72.3124 56.1863C72.5517 56.2752 72.7875 56.3777 73.02 56.4939C73.2525 56.6033 73.4439 56.7538 73.5943 56.9452C73.7516 57.1298 73.8302 57.3794 73.8302 57.6939C73.8302 57.9605 73.7584 58.2066 73.6148 58.4323C73.4781 58.6579 73.273 58.8391 72.9995 58.9758C72.7328 59.1126 72.4012 59.1809 72.0047 59.1809ZM76.3676 59.1809C75.8343 59.1809 75.4617 59.0271 75.2497 58.7194C75.0446 58.4118 74.9421 58.0118 74.9421 57.5195V54.7607H74.2036V54.1249L74.9831 54.0736L75.0856 52.6788H75.7933V54.0736H77.1368V54.7607H75.7933V57.5298C75.7933 57.8374 75.848 58.0767 75.9574 58.2477C76.0736 58.4118 76.2753 58.4938 76.5624 58.4938C76.6513 58.4938 76.7471 58.4801 76.8496 58.4528C76.9522 58.4186 77.0445 58.3878 77.1265 58.3605L77.2906 58.9963C77.1539 59.0442 77.0034 59.0852 76.8394 59.1194C76.6821 59.1604 76.5248 59.1809 76.3676 59.1809ZM80.0619 59.1809C79.6585 59.1809 79.279 59.0784 78.9235 58.8733C78.5748 58.6681 78.2911 58.3707 78.0723 57.981C77.8603 57.5913 77.7543 57.123 77.7543 56.576C77.7543 56.0153 77.8603 55.5402 78.0723 55.1505C78.2911 54.7607 78.5748 54.4633 78.9235 54.2582C79.279 54.0531 79.6585 53.9505 80.0619 53.9505C80.4721 53.9505 80.8516 54.0531 81.2003 54.2582C81.5489 54.4633 81.8293 54.7607 82.0412 55.1505C82.26 55.5402 82.3694 56.0153 82.3694 56.576C82.3694 57.123 82.26 57.5913 82.0412 57.981C81.8293 58.3707 81.5489 58.6681 81.2003 58.8733C80.8516 59.0784 80.4721 59.1809 80.0619 59.1809ZM80.0619 58.4835C80.4926 58.4835 80.8379 58.3092 81.0977 57.9605C81.3643 57.605 81.4977 57.1435 81.4977 56.576C81.4977 56.0017 81.3643 55.5367 81.0977 55.1812C80.8379 54.8257 80.4926 54.6479 80.0619 54.6479C79.638 54.6479 79.2927 54.8257 79.0261 55.1812C78.7594 55.5367 78.6261 56.0017 78.6261 56.576C78.6261 57.1435 78.7594 57.605 79.0261 57.9605C79.2927 58.3092 79.638 58.4835 80.0619 58.4835ZM83.682 59.0579V54.0736H84.3794L84.4512 54.7915H84.482C84.7008 54.5522 84.9401 54.3539 85.1999 54.1967C85.4597 54.0326 85.7366 53.9505 86.0306 53.9505C86.4135 53.9505 86.7109 54.036 86.9228 54.2069C87.1416 54.371 87.3023 54.6035 87.4049 54.9043C87.6647 54.624 87.9279 54.395 88.1945 54.2172C88.4612 54.0394 88.7449 53.9505 89.0458 53.9505C89.5585 53.9505 89.938 54.118 90.1841 54.4531C90.4371 54.7812 90.5636 55.2633 90.5636 55.8991V59.0579H89.7226V56.0119C89.7226 55.547 89.6474 55.2086 89.497 54.9966C89.3466 54.7847 89.1141 54.6787 88.7996 54.6787C88.4304 54.6787 88.0134 54.9351 87.5484 55.4479V59.0579H86.7075V56.0119C86.7075 55.547 86.6323 55.2086 86.4818 54.9966C86.3314 54.7847 86.0955 54.6787 85.7742 54.6787C85.405 54.6787 84.9879 54.9351 84.523 55.4479V59.0579H83.682ZM94.2054 59.1809C93.761 59.1809 93.3576 59.0784 92.9952 58.8733C92.6329 58.6613 92.3457 58.3605 92.1338 57.9708C91.9218 57.581 91.8158 57.1161 91.8158 56.576C91.8158 56.029 91.9218 55.5607 92.1338 55.171C92.3525 54.7812 92.6329 54.4804 92.9747 54.2685C93.3166 54.0565 93.6755 53.9505 94.0516 53.9505C94.6874 53.9505 95.1763 54.1625 95.5181 54.5864C95.8668 55.0103 96.0412 55.5778 96.0412 56.2888C96.0412 56.3777 96.0378 56.4666 96.0309 56.5555C96.0309 56.6375 96.0241 56.7093 96.0104 56.7708H92.6465C92.6807 57.2973 92.8448 57.7178 93.1388 58.0323C93.4396 58.3468 93.8294 58.5041 94.308 58.5041C94.5473 58.5041 94.766 58.4699 94.9643 58.4015C95.1694 58.3263 95.3643 58.2306 95.5489 58.1143L95.8463 58.6681C95.6344 58.8049 95.3916 58.9245 95.1182 59.0271C94.8515 59.1297 94.5473 59.1809 94.2054 59.1809ZM92.6363 56.1658H95.3028C95.3028 55.6598 95.1934 55.2769 94.9746 55.0171C94.7626 54.7505 94.4618 54.6172 94.0721 54.6172C93.7234 54.6172 93.4089 54.7539 93.1286 55.0274C92.8551 55.294 92.691 55.6735 92.6363 56.1658ZM97.2728 59.0579V54.0736H97.9702L98.042 54.9761H98.0728C98.2437 54.6616 98.4522 54.412 98.6983 54.2274C98.9445 54.0428 99.2077 53.9505 99.488 53.9505C99.6863 53.9505 99.8641 53.9847 100.021 54.0531L99.8572 54.7915C99.7752 54.7642 99.7 54.7436 99.6316 54.73C99.5632 54.7163 99.4778 54.7095 99.3752 54.7095C99.1633 54.7095 98.9411 54.7949 98.7086 54.9658C98.483 55.1368 98.2847 55.4342 98.1138 55.8581V59.0579H97.2728ZM102.091 59.1809C101.735 59.1809 101.397 59.116 101.075 58.9861C100.754 58.8493 100.474 58.6852 100.234 58.4938L100.655 57.9297C100.874 58.1007 101.099 58.2442 101.332 58.3605C101.564 58.4699 101.827 58.5246 102.121 58.5246C102.45 58.5246 102.696 58.4494 102.86 58.2989C103.024 58.1417 103.106 57.9571 103.106 57.7451C103.106 57.5742 103.048 57.4306 102.932 57.3144C102.822 57.1982 102.679 57.1024 102.501 57.0272C102.33 56.9452 102.152 56.87 101.968 56.8016C101.735 56.7127 101.506 56.6136 101.28 56.5042C101.055 56.388 100.87 56.241 100.727 56.0632C100.583 55.8786 100.511 55.6461 100.511 55.3658C100.511 54.9624 100.662 54.6274 100.963 54.3608C101.27 54.0873 101.694 53.9505 102.234 53.9505C102.542 53.9505 102.829 54.0052 103.096 54.1146C103.362 54.224 103.591 54.3573 103.783 54.5146L103.373 55.0479C103.202 54.918 103.024 54.812 102.839 54.73C102.655 54.6479 102.453 54.6069 102.234 54.6069C101.92 54.6069 101.687 54.6787 101.537 54.8223C101.393 54.9658 101.321 55.1334 101.321 55.3248C101.321 55.4821 101.373 55.612 101.475 55.7145C101.578 55.8102 101.711 55.8957 101.875 55.9709C102.039 56.0393 102.214 56.1111 102.398 56.1863C102.638 56.2752 102.874 56.3777 103.106 56.4939C103.338 56.6033 103.53 56.7538 103.68 56.9452C103.838 57.1298 103.916 57.3794 103.916 57.6939C103.916 57.9605 103.844 58.2066 103.701 58.4323C103.564 58.6579 103.359 58.8391 103.085 58.9758C102.819 59.1126 102.487 59.1809 102.091 59.1809Z" fill="white"/>
</svg>
