<svg width="200" height="58" viewBox="0 0 200 58" fill="none" xmlns="http://www.w3.org/2000/svg">
<path d="M0 0H200V58H17L0 0Z" fill="#003399"/>
<path d="M33.068 36V25.452H29.504V24.192H38.144V25.452H34.58V36H33.068ZM40.1264 36V27.252H41.6024V36H40.1264ZM40.8824 25.452C40.5944 25.452 40.3544 25.368 40.1624 25.2C39.9824 25.02 39.8924 24.78 39.8924 24.48C39.8924 24.192 39.9824 23.958 40.1624 23.778C40.3544 23.598 40.5944 23.508 40.8824 23.508C41.1704 23.508 41.4044 23.598 41.5844 23.778C41.7764 23.958 41.8724 24.192 41.8724 24.48C41.8724 24.78 41.7764 25.02 41.5844 25.2C41.4044 25.368 41.1704 25.452 40.8824 25.452ZM44.5561 36V27.252H45.7801L45.9061 28.512H45.9601C46.3441 28.092 46.7641 27.744 47.2201 27.468C47.6761 27.18 48.1621 27.036 48.6781 27.036C49.3501 27.036 49.8721 27.186 50.2441 27.486C50.6281 27.774 50.9101 28.182 51.0901 28.71C51.5461 28.218 52.0081 27.816 52.4761 27.504C52.9441 27.192 53.4421 27.036 53.9701 27.036C54.8701 27.036 55.5361 27.33 55.9681 27.918C56.4121 28.494 56.6341 29.34 56.6341 30.456V36H55.1581V30.654C55.1581 29.838 55.0261 29.244 54.7621 28.872C54.4981 28.5 54.0901 28.314 53.5381 28.314C52.8901 28.314 52.1581 28.764 51.3421 29.664V36H49.8661V30.654C49.8661 29.838 49.7341 29.244 49.4701 28.872C49.2061 28.5 48.7921 28.314 48.2281 28.314C47.5801 28.314 46.8481 28.764 46.0321 29.664V36H44.5561ZM63.0259 36.216C62.2459 36.216 61.5379 36.036 60.9019 35.676C60.2659 35.304 59.7619 34.776 59.3899 34.092C59.0179 33.408 58.8319 32.592 58.8319 31.644C58.8319 30.684 59.0179 29.862 59.3899 29.178C59.7739 28.494 60.2659 27.966 60.8659 27.594C61.4659 27.222 62.0959 27.036 62.7559 27.036C63.8719 27.036 64.7299 27.408 65.3299 28.152C65.9419 28.896 66.2479 29.892 66.2479 31.14C66.2479 31.296 66.2419 31.452 66.2299 31.608C66.2299 31.752 66.2179 31.878 66.1939 31.986H60.2899C60.3499 32.91 60.6379 33.648 61.1539 34.2C61.6819 34.752 62.3659 35.028 63.2059 35.028C63.6259 35.028 64.0099 34.968 64.3579 34.848C64.7179 34.716 65.0599 34.548 65.3839 34.344L65.9059 35.316C65.5339 35.556 65.1079 35.766 64.6279 35.946C64.1599 36.126 63.6259 36.216 63.0259 36.216ZM60.2719 30.924H64.9519C64.9519 30.036 64.7599 29.364 64.3759 28.908C64.0039 28.44 63.4759 28.206 62.7919 28.206C62.1799 28.206 61.6279 28.446 61.1359 28.926C60.6559 29.394 60.3679 30.06 60.2719 30.924ZM72.1571 36V24.192H75.6671C76.4711 24.192 77.1731 24.288 77.7731 24.48C78.3851 24.672 78.8591 24.978 79.1951 25.398C79.5431 25.818 79.7171 26.376 79.7171 27.072C79.7171 27.66 79.5671 28.194 79.2671 28.674C78.9791 29.142 78.5531 29.466 77.9891 29.646V29.718C78.6971 29.85 79.2731 30.15 79.7171 30.618C80.1731 31.086 80.4011 31.728 80.4011 32.544C80.4011 33.312 80.2091 33.954 79.8251 34.47C79.4531 34.986 78.9311 35.37 78.2591 35.622C77.5871 35.874 76.8071 36 75.9191 36H72.1571ZM73.6511 29.214H75.3971C76.4051 29.214 77.1311 29.04 77.5751 28.692C78.0191 28.344 78.2411 27.87 78.2411 27.27C78.2411 26.586 78.0071 26.1 77.5391 25.812C77.0831 25.524 76.3931 25.38 75.4691 25.38H73.6511V29.214ZM73.6511 34.812H75.7031C76.7231 34.812 77.5151 34.626 78.0791 34.254C78.6431 33.87 78.9251 33.282 78.9251 32.49C78.9251 31.758 78.6431 31.224 78.0791 30.888C77.5271 30.54 76.7351 30.366 75.7031 30.366H73.6511V34.812ZM84.6111 36.216C83.8791 36.216 83.2671 36 82.7751 35.568C82.2951 35.124 82.0551 34.512 82.0551 33.732C82.0551 32.772 82.4811 32.04 83.3331 31.536C84.1971 31.02 85.5591 30.66 87.4191 30.456C87.4191 30.084 87.3651 29.73 87.2571 29.394C87.1611 29.058 86.9811 28.788 86.7171 28.584C86.4651 28.368 86.0991 28.26 85.6191 28.26C85.1151 28.26 84.6411 28.356 84.1971 28.548C83.7531 28.74 83.3571 28.956 83.0091 29.196L82.4331 28.17C82.8411 27.906 83.3391 27.654 83.9271 27.414C84.5271 27.162 85.1751 27.036 85.8711 27.036C86.9391 27.036 87.7131 27.366 88.1931 28.026C88.6731 28.674 88.9131 29.544 88.9131 30.636V36H87.6891L87.5631 34.956H87.5091C87.1011 35.292 86.6511 35.586 86.1591 35.838C85.6791 36.09 85.1631 36.216 84.6111 36.216ZM85.0431 35.028C85.4631 35.028 85.8591 34.926 86.2311 34.722C86.6031 34.518 86.9991 34.23 87.4191 33.858V31.428C85.9671 31.608 84.9471 31.878 84.3591 32.238C83.7831 32.598 83.4951 33.06 83.4951 33.624C83.4951 34.116 83.6451 34.476 83.9451 34.704C84.2451 34.92 84.6111 35.028 85.0431 35.028ZM93.9515 36.216C93.3275 36.216 92.7335 36.102 92.1695 35.874C91.6055 35.634 91.1135 35.346 90.6935 35.01L91.4315 34.02C91.8155 34.32 92.2115 34.572 92.6195 34.776C93.0275 34.968 93.4895 35.064 94.0055 35.064C94.5815 35.064 95.0135 34.932 95.3015 34.668C95.5895 34.392 95.7335 34.068 95.7335 33.696C95.7335 33.396 95.6315 33.144 95.4275 32.94C95.2355 32.736 94.9835 32.568 94.6715 32.436C94.3715 32.292 94.0595 32.16 93.7355 32.04C93.3275 31.884 92.9255 31.71 92.5295 31.518C92.1335 31.314 91.8095 31.056 91.5575 30.744C91.3055 30.42 91.1795 30.012 91.1795 29.52C91.1795 28.812 91.4435 28.224 91.9715 27.756C92.5115 27.276 93.2555 27.036 94.2035 27.036C94.7435 27.036 95.2475 27.132 95.7155 27.324C96.1835 27.516 96.5855 27.75 96.9215 28.026L96.2015 28.962C95.9015 28.734 95.5895 28.548 95.2655 28.404C94.9415 28.26 94.5875 28.188 94.2035 28.188C93.6515 28.188 93.2435 28.314 92.9795 28.566C92.7275 28.818 92.6015 29.112 92.6015 29.448C92.6015 29.724 92.6915 29.952 92.8715 30.132C93.0515 30.3 93.2855 30.45 93.5735 30.582C93.8615 30.702 94.1675 30.828 94.4915 30.96C94.9115 31.116 95.3255 31.296 95.7335 31.5C96.1415 31.692 96.4775 31.956 96.7415 32.292C97.0175 32.616 97.1555 33.054 97.1555 33.606C97.1555 34.074 97.0295 34.506 96.7775 34.902C96.5375 35.298 96.1775 35.616 95.6975 35.856C95.2295 36.096 94.6475 36.216 93.9515 36.216ZM102.752 36.216C101.972 36.216 101.264 36.036 100.628 35.676C99.9925 35.304 99.4885 34.776 99.1165 34.092C98.7445 33.408 98.5585 32.592 98.5585 31.644C98.5585 30.684 98.7445 29.862 99.1165 29.178C99.5005 28.494 99.9925 27.966 100.592 27.594C101.192 27.222 101.822 27.036 102.482 27.036C103.598 27.036 104.456 27.408 105.056 28.152C105.668 28.896 105.974 29.892 105.974 31.14C105.974 31.296 105.968 31.452 105.956 31.608C105.956 31.752 105.944 31.878 105.92 31.986H100.016C100.076 32.91 100.364 33.648 100.88 34.2C101.408 34.752 102.092 35.028 102.932 35.028C103.352 35.028 103.736 34.968 104.084 34.848C104.444 34.716 104.786 34.548 105.11 34.344L105.632 35.316C105.26 35.556 104.834 35.766 104.354 35.946C103.886 36.126 103.352 36.216 102.752 36.216ZM99.9985 30.924H104.678C104.678 30.036 104.486 29.364 104.102 28.908C103.73 28.44 103.202 28.206 102.518 28.206C101.906 28.206 101.354 28.446 100.862 28.926C100.382 29.394 100.094 30.06 99.9985 30.924ZM111.124 36.216C110.032 36.216 109.156 35.82 108.496 35.028C107.836 34.224 107.506 33.096 107.506 31.644C107.506 30.696 107.68 29.88 108.028 29.196C108.388 28.5 108.856 27.966 109.432 27.594C110.02 27.222 110.644 27.036 111.304 27.036C111.808 27.036 112.246 27.126 112.618 27.306C112.99 27.486 113.368 27.732 113.752 28.044L113.68 26.55V23.184H115.174V36H113.95L113.824 34.974H113.77C113.434 35.31 113.038 35.604 112.582 35.856C112.126 36.096 111.64 36.216 111.124 36.216ZM111.448 34.974C112.216 34.974 112.96 34.572 113.68 33.768V29.196C113.308 28.86 112.948 28.626 112.6 28.494C112.264 28.35 111.916 28.278 111.556 28.278C111.088 28.278 110.662 28.422 110.278 28.71C109.906 28.986 109.606 29.376 109.378 29.88C109.15 30.372 109.036 30.954 109.036 31.626C109.036 32.67 109.246 33.492 109.666 34.092C110.086 34.68 110.68 34.974 111.448 34.974ZM123.902 29.394L123.344 31.194H126.89L126.332 29.394C126.116 28.734 125.912 28.08 125.72 27.432C125.528 26.772 125.336 26.1 125.144 25.416H125.072C124.892 26.1 124.706 26.772 124.514 27.432C124.322 28.08 124.118 28.734 123.902 29.394ZM120.302 36L124.298 24.192H125.99L129.986 36H128.384L127.268 32.4H122.966L121.832 36H120.302ZM134.971 36.216C134.203 36.216 133.507 36.036 132.883 35.676C132.259 35.316 131.767 34.794 131.407 34.11C131.047 33.426 130.867 32.604 130.867 31.644C130.867 30.66 131.059 29.826 131.443 29.142C131.839 28.458 132.355 27.936 132.991 27.576C133.639 27.216 134.335 27.036 135.079 27.036C135.655 27.036 136.147 27.138 136.555 27.342C136.975 27.546 137.335 27.786 137.635 28.062L136.879 29.034C136.627 28.806 136.357 28.62 136.069 28.476C135.793 28.332 135.481 28.26 135.133 28.26C134.605 28.26 134.131 28.404 133.711 28.692C133.303 28.968 132.979 29.364 132.739 29.88C132.511 30.384 132.397 30.972 132.397 31.644C132.397 32.64 132.643 33.45 133.135 34.074C133.639 34.686 134.293 34.992 135.097 34.992C135.505 34.992 135.883 34.908 136.231 34.74C136.579 34.56 136.885 34.35 137.149 34.11L137.797 35.1C137.401 35.448 136.963 35.724 136.483 35.928C136.003 36.12 135.499 36.216 134.971 36.216ZM142.793 36.216C142.025 36.216 141.329 36.036 140.705 35.676C140.081 35.316 139.589 34.794 139.229 34.11C138.869 33.426 138.689 32.604 138.689 31.644C138.689 30.66 138.881 29.826 139.265 29.142C139.661 28.458 140.177 27.936 140.813 27.576C141.461 27.216 142.157 27.036 142.901 27.036C143.477 27.036 143.969 27.138 144.377 27.342C144.797 27.546 145.157 27.786 145.457 28.062L144.701 29.034C144.449 28.806 144.179 28.62 143.891 28.476C143.615 28.332 143.303 28.26 142.955 28.26C142.427 28.26 141.953 28.404 141.533 28.692C141.125 28.968 140.801 29.364 140.561 29.88C140.333 30.384 140.219 30.972 140.219 31.644C140.219 32.64 140.465 33.45 140.957 34.074C141.461 34.686 142.115 34.992 142.919 34.992C143.327 34.992 143.705 34.908 144.053 34.74C144.401 34.56 144.707 34.35 144.971 34.11L145.619 35.1C145.223 35.448 144.785 35.724 144.305 35.928C143.825 36.12 143.321 36.216 142.793 36.216ZM150.706 36.216C149.926 36.216 149.218 36.036 148.582 35.676C147.946 35.304 147.442 34.776 147.07 34.092C146.698 33.408 146.512 32.592 146.512 31.644C146.512 30.684 146.698 29.862 147.07 29.178C147.454 28.494 147.946 27.966 148.546 27.594C149.146 27.222 149.776 27.036 150.436 27.036C151.552 27.036 152.41 27.408 153.01 28.152C153.622 28.896 153.928 29.892 153.928 31.14C153.928 31.296 153.922 31.452 153.91 31.608C153.91 31.752 153.898 31.878 153.874 31.986H147.97C148.03 32.91 148.318 33.648 148.834 34.2C149.362 34.752 150.046 35.028 150.886 35.028C151.306 35.028 151.69 34.968 152.038 34.848C152.398 34.716 152.74 34.548 153.064 34.344L153.586 35.316C153.214 35.556 152.788 35.766 152.308 35.946C151.84 36.126 151.306 36.216 150.706 36.216ZM147.952 30.924H152.632C152.632 30.036 152.44 29.364 152.056 28.908C151.684 28.44 151.156 28.206 150.472 28.206C149.86 28.206 149.308 28.446 148.816 28.926C148.336 29.394 148.048 30.06 147.952 30.924ZM158.375 36.216C157.751 36.216 157.157 36.102 156.593 35.874C156.029 35.634 155.537 35.346 155.117 35.01L155.855 34.02C156.239 34.32 156.635 34.572 157.043 34.776C157.451 34.968 157.913 35.064 158.429 35.064C159.005 35.064 159.437 34.932 159.725 34.668C160.013 34.392 160.157 34.068 160.157 33.696C160.157 33.396 160.055 33.144 159.851 32.94C159.659 32.736 159.407 32.568 159.095 32.436C158.795 32.292 158.483 32.16 158.159 32.04C157.751 31.884 157.349 31.71 156.953 31.518C156.557 31.314 156.233 31.056 155.981 30.744C155.729 30.42 155.603 30.012 155.603 29.52C155.603 28.812 155.867 28.224 156.395 27.756C156.935 27.276 157.679 27.036 158.627 27.036C159.167 27.036 159.671 27.132 160.139 27.324C160.607 27.516 161.009 27.75 161.345 28.026L160.625 28.962C160.325 28.734 160.013 28.548 159.689 28.404C159.365 28.26 159.011 28.188 158.627 28.188C158.075 28.188 157.667 28.314 157.403 28.566C157.151 28.818 157.025 29.112 157.025 29.448C157.025 29.724 157.115 29.952 157.295 30.132C157.475 30.3 157.709 30.45 157.997 30.582C158.285 30.702 158.591 30.828 158.915 30.96C159.335 31.116 159.749 31.296 160.157 31.5C160.565 31.692 160.901 31.956 161.165 32.292C161.441 32.616 161.579 33.054 161.579 33.606C161.579 34.074 161.453 34.506 161.201 34.902C160.961 35.298 160.601 35.616 160.121 35.856C159.653 36.096 159.071 36.216 158.375 36.216ZM165.916 36.216C165.292 36.216 164.698 36.102 164.134 35.874C163.57 35.634 163.078 35.346 162.658 35.01L163.396 34.02C163.78 34.32 164.176 34.572 164.584 34.776C164.992 34.968 165.454 35.064 165.97 35.064C166.546 35.064 166.978 34.932 167.266 34.668C167.554 34.392 167.698 34.068 167.698 33.696C167.698 33.396 167.596 33.144 167.392 32.94C167.2 32.736 166.948 32.568 166.636 32.436C166.336 32.292 166.024 32.16 165.7 32.04C165.292 31.884 164.89 31.71 164.494 31.518C164.098 31.314 163.774 31.056 163.522 30.744C163.27 30.42 163.144 30.012 163.144 29.52C163.144 28.812 163.408 28.224 163.936 27.756C164.476 27.276 165.22 27.036 166.168 27.036C166.708 27.036 167.212 27.132 167.68 27.324C168.148 27.516 168.55 27.75 168.886 28.026L168.166 28.962C167.866 28.734 167.554 28.548 167.23 28.404C166.906 28.26 166.552 28.188 166.168 28.188C165.616 28.188 165.208 28.314 164.944 28.566C164.692 28.818 164.566 29.112 164.566 29.448C164.566 29.724 164.656 29.952 164.836 30.132C165.016 30.3 165.25 30.45 165.538 30.582C165.826 30.702 166.132 30.828 166.456 30.96C166.876 31.116 167.29 31.296 167.698 31.5C168.106 31.692 168.442 31.956 168.706 32.292C168.982 32.616 169.12 33.054 169.12 33.606C169.12 34.074 168.994 34.506 168.742 34.902C168.502 35.298 168.142 35.616 167.662 35.856C167.194 36.096 166.612 36.216 165.916 36.216Z" fill="white"/>
</svg>
