<svg width="219" height="68" viewBox="0 0 219 68" fill="none" xmlns="http://www.w3.org/2000/svg">
<path d="M0 0H184L218.5 65L0 68V0Z" fill="#003399"/>
<path d="M48.976 40.216C47.992 40.216 47.116 39.964 46.348 39.46C45.592 38.956 44.998 38.242 44.566 37.318C44.146 36.394 43.936 35.302 43.936 34.042C43.936 32.782 44.146 31.702 44.566 30.802C44.998 29.89 45.592 29.194 46.348 28.714C47.116 28.222 47.992 27.976 48.976 27.976C49.972 27.976 50.848 28.222 51.604 28.714C52.36 29.194 52.954 29.89 53.386 30.802C53.818 31.702 54.034 32.782 54.034 34.042C54.034 35.302 53.818 36.394 53.386 37.318C52.954 38.242 52.36 38.956 51.604 39.46C50.848 39.964 49.972 40.216 48.976 40.216ZM48.976 38.902C49.684 38.902 50.296 38.704 50.812 38.308C51.34 37.9 51.748 37.336 52.036 36.616C52.324 35.884 52.468 35.026 52.468 34.042C52.468 32.578 52.15 31.42 51.514 30.568C50.878 29.716 50.032 29.29 48.976 29.29C47.92 29.29 47.074 29.716 46.438 30.568C45.802 31.42 45.484 32.578 45.484 34.042C45.484 35.026 45.628 35.884 45.916 36.616C46.204 37.336 46.612 37.9 47.14 38.308C47.668 38.704 48.28 38.902 48.976 38.902ZM56.4291 40V31.252H57.6531L57.7791 32.512H57.8331C58.2531 32.092 58.6971 31.744 59.1651 31.468C59.6331 31.18 60.1671 31.036 60.7671 31.036C61.6911 31.036 62.3631 31.33 62.7831 31.918C63.2151 32.494 63.4311 33.34 63.4311 34.456V40H61.9551V34.654C61.9551 33.838 61.8231 33.244 61.5591 32.872C61.2951 32.5 60.8751 32.314 60.2991 32.314C59.8551 32.314 59.4531 32.428 59.0931 32.656C58.7451 32.884 58.3491 33.22 57.9051 33.664V40H56.4291ZM69.8189 40.216C69.0389 40.216 68.3309 40.036 67.6949 39.676C67.0589 39.304 66.5549 38.776 66.1829 38.092C65.8109 37.408 65.6249 36.592 65.6249 35.644C65.6249 34.684 65.8109 33.862 66.1829 33.178C66.5669 32.494 67.0589 31.966 67.6589 31.594C68.2589 31.222 68.8889 31.036 69.5489 31.036C70.6649 31.036 71.5229 31.408 72.1229 32.152C72.7349 32.896 73.0409 33.892 73.0409 35.14C73.0409 35.296 73.0349 35.452 73.0229 35.608C73.0229 35.752 73.0109 35.878 72.9869 35.986H67.0829C67.1429 36.91 67.4309 37.648 67.9469 38.2C68.4749 38.752 69.1589 39.028 69.9989 39.028C70.4189 39.028 70.8029 38.968 71.1509 38.848C71.5109 38.716 71.8529 38.548 72.1769 38.344L72.6989 39.316C72.3269 39.556 71.9009 39.766 71.4209 39.946C70.9529 40.126 70.4189 40.216 69.8189 40.216ZM67.0649 34.924H71.7449C71.7449 34.036 71.5529 33.364 71.1689 32.908C70.7969 32.44 70.2689 32.206 69.5849 32.206C68.9729 32.206 68.4209 32.446 67.9289 32.926C67.4489 33.394 67.1609 34.06 67.0649 34.924ZM81.3981 40V29.452H77.8341V28.192H86.4741V29.452H82.9101V40H81.3981ZM88.4565 40V31.252H89.9325V40H88.4565ZM89.2125 29.452C88.9245 29.452 88.6845 29.368 88.4925 29.2C88.3125 29.02 88.2225 28.78 88.2225 28.48C88.2225 28.192 88.3125 27.958 88.4925 27.778C88.6845 27.598 88.9245 27.508 89.2125 27.508C89.5005 27.508 89.7345 27.598 89.9145 27.778C90.1065 27.958 90.2025 28.192 90.2025 28.48C90.2025 28.78 90.1065 29.02 89.9145 29.2C89.7345 29.368 89.5005 29.452 89.2125 29.452ZM92.8862 40V31.252H94.1102L94.2362 32.512H94.2902C94.6742 32.092 95.0942 31.744 95.5502 31.468C96.0062 31.18 96.4922 31.036 97.0082 31.036C97.6802 31.036 98.2022 31.186 98.5742 31.486C98.9582 31.774 99.2402 32.182 99.4202 32.71C99.8762 32.218 100.338 31.816 100.806 31.504C101.274 31.192 101.772 31.036 102.3 31.036C103.2 31.036 103.866 31.33 104.298 31.918C104.742 32.494 104.964 33.34 104.964 34.456V40H103.488V34.654C103.488 33.838 103.356 33.244 103.092 32.872C102.828 32.5 102.42 32.314 101.868 32.314C101.22 32.314 100.488 32.764 99.6722 33.664V40H98.1962V34.654C98.1962 33.838 98.0642 33.244 97.8002 32.872C97.5362 32.5 97.1222 32.314 96.5582 32.314C95.9102 32.314 95.1782 32.764 94.3622 33.664V40H92.8862ZM111.356 40.216C110.576 40.216 109.868 40.036 109.232 39.676C108.596 39.304 108.092 38.776 107.72 38.092C107.348 37.408 107.162 36.592 107.162 35.644C107.162 34.684 107.348 33.862 107.72 33.178C108.104 32.494 108.596 31.966 109.196 31.594C109.796 31.222 110.426 31.036 111.086 31.036C112.202 31.036 113.06 31.408 113.66 32.152C114.272 32.896 114.578 33.892 114.578 35.14C114.578 35.296 114.572 35.452 114.56 35.608C114.56 35.752 114.548 35.878 114.524 35.986H108.62C108.68 36.91 108.968 37.648 109.484 38.2C110.012 38.752 110.696 39.028 111.536 39.028C111.956 39.028 112.34 38.968 112.688 38.848C113.048 38.716 113.39 38.548 113.714 38.344L114.236 39.316C113.864 39.556 113.438 39.766 112.958 39.946C112.49 40.126 111.956 40.216 111.356 40.216ZM108.602 34.924H113.282C113.282 34.036 113.09 33.364 112.706 32.908C112.334 32.44 111.806 32.206 111.122 32.206C110.51 32.206 109.958 32.446 109.466 32.926C108.986 33.394 108.698 34.06 108.602 34.924ZM122.521 33.394L121.963 35.194H125.509L124.951 33.394C124.735 32.734 124.531 32.08 124.339 31.432C124.147 30.772 123.955 30.1 123.763 29.416H123.691C123.511 30.1 123.325 30.772 123.133 31.432C122.941 32.08 122.737 32.734 122.521 33.394ZM118.921 40L122.917 28.192H124.609L128.605 40H127.003L125.887 36.4H121.585L120.451 40H118.921ZM133.59 40.216C132.822 40.216 132.126 40.036 131.502 39.676C130.878 39.316 130.386 38.794 130.026 38.11C129.666 37.426 129.486 36.604 129.486 35.644C129.486 34.66 129.678 33.826 130.062 33.142C130.458 32.458 130.974 31.936 131.61 31.576C132.258 31.216 132.954 31.036 133.698 31.036C134.274 31.036 134.766 31.138 135.174 31.342C135.594 31.546 135.954 31.786 136.254 32.062L135.498 33.034C135.246 32.806 134.976 32.62 134.688 32.476C134.412 32.332 134.1 32.26 133.752 32.26C133.224 32.26 132.75 32.404 132.33 32.692C131.922 32.968 131.598 33.364 131.358 33.88C131.13 34.384 131.016 34.972 131.016 35.644C131.016 36.64 131.262 37.45 131.754 38.074C132.258 38.686 132.912 38.992 133.716 38.992C134.124 38.992 134.502 38.908 134.85 38.74C135.198 38.56 135.504 38.35 135.768 38.11L136.416 39.1C136.02 39.448 135.582 39.724 135.102 39.928C134.622 40.12 134.118 40.216 133.59 40.216ZM141.412 40.216C140.644 40.216 139.948 40.036 139.324 39.676C138.7 39.316 138.208 38.794 137.848 38.11C137.488 37.426 137.308 36.604 137.308 35.644C137.308 34.66 137.5 33.826 137.884 33.142C138.28 32.458 138.796 31.936 139.432 31.576C140.08 31.216 140.776 31.036 141.52 31.036C142.096 31.036 142.588 31.138 142.996 31.342C143.416 31.546 143.776 31.786 144.076 32.062L143.32 33.034C143.068 32.806 142.798 32.62 142.51 32.476C142.234 32.332 141.922 32.26 141.574 32.26C141.046 32.26 140.572 32.404 140.152 32.692C139.744 32.968 139.42 33.364 139.18 33.88C138.952 34.384 138.838 34.972 138.838 35.644C138.838 36.64 139.084 37.45 139.576 38.074C140.08 38.686 140.734 38.992 141.538 38.992C141.946 38.992 142.324 38.908 142.672 38.74C143.02 38.56 143.326 38.35 143.59 38.11L144.238 39.1C143.842 39.448 143.404 39.724 142.924 39.928C142.444 40.12 141.94 40.216 141.412 40.216ZM149.325 40.216C148.545 40.216 147.837 40.036 147.201 39.676C146.565 39.304 146.061 38.776 145.689 38.092C145.317 37.408 145.131 36.592 145.131 35.644C145.131 34.684 145.317 33.862 145.689 33.178C146.073 32.494 146.565 31.966 147.165 31.594C147.765 31.222 148.395 31.036 149.055 31.036C150.171 31.036 151.029 31.408 151.629 32.152C152.241 32.896 152.547 33.892 152.547 35.14C152.547 35.296 152.541 35.452 152.529 35.608C152.529 35.752 152.517 35.878 152.493 35.986H146.589C146.649 36.91 146.937 37.648 147.453 38.2C147.981 38.752 148.665 39.028 149.505 39.028C149.925 39.028 150.309 38.968 150.657 38.848C151.017 38.716 151.359 38.548 151.683 38.344L152.205 39.316C151.833 39.556 151.407 39.766 150.927 39.946C150.459 40.126 149.925 40.216 149.325 40.216ZM146.571 34.924H151.251C151.251 34.036 151.059 33.364 150.675 32.908C150.303 32.44 149.775 32.206 149.091 32.206C148.479 32.206 147.927 32.446 147.435 32.926C146.955 33.394 146.667 34.06 146.571 34.924ZM156.994 40.216C156.37 40.216 155.776 40.102 155.212 39.874C154.648 39.634 154.156 39.346 153.736 39.01L154.474 38.02C154.858 38.32 155.254 38.572 155.662 38.776C156.07 38.968 156.532 39.064 157.048 39.064C157.624 39.064 158.056 38.932 158.344 38.668C158.632 38.392 158.776 38.068 158.776 37.696C158.776 37.396 158.674 37.144 158.47 36.94C158.278 36.736 158.026 36.568 157.714 36.436C157.414 36.292 157.102 36.16 156.778 36.04C156.37 35.884 155.968 35.71 155.572 35.518C155.176 35.314 154.852 35.056 154.6 34.744C154.348 34.42 154.222 34.012 154.222 33.52C154.222 32.812 154.486 32.224 155.014 31.756C155.554 31.276 156.298 31.036 157.246 31.036C157.786 31.036 158.29 31.132 158.758 31.324C159.226 31.516 159.628 31.75 159.964 32.026L159.244 32.962C158.944 32.734 158.632 32.548 158.308 32.404C157.984 32.26 157.63 32.188 157.246 32.188C156.694 32.188 156.286 32.314 156.022 32.566C155.77 32.818 155.644 33.112 155.644 33.448C155.644 33.724 155.734 33.952 155.914 34.132C156.094 34.3 156.328 34.45 156.616 34.582C156.904 34.702 157.21 34.828 157.534 34.96C157.954 35.116 158.368 35.296 158.776 35.5C159.184 35.692 159.52 35.956 159.784 36.292C160.06 36.616 160.198 37.054 160.198 37.606C160.198 38.074 160.072 38.506 159.82 38.902C159.58 39.298 159.22 39.616 158.74 39.856C158.272 40.096 157.69 40.216 156.994 40.216ZM164.535 40.216C163.911 40.216 163.317 40.102 162.753 39.874C162.189 39.634 161.697 39.346 161.277 39.01L162.015 38.02C162.399 38.32 162.795 38.572 163.203 38.776C163.611 38.968 164.073 39.064 164.589 39.064C165.165 39.064 165.597 38.932 165.885 38.668C166.173 38.392 166.317 38.068 166.317 37.696C166.317 37.396 166.215 37.144 166.011 36.94C165.819 36.736 165.567 36.568 165.255 36.436C164.955 36.292 164.643 36.16 164.319 36.04C163.911 35.884 163.509 35.71 163.113 35.518C162.717 35.314 162.393 35.056 162.141 34.744C161.889 34.42 161.763 34.012 161.763 33.52C161.763 32.812 162.027 32.224 162.555 31.756C163.095 31.276 163.839 31.036 164.787 31.036C165.327 31.036 165.831 31.132 166.299 31.324C166.767 31.516 167.169 31.75 167.505 32.026L166.785 32.962C166.485 32.734 166.173 32.548 165.849 32.404C165.525 32.26 165.171 32.188 164.787 32.188C164.235 32.188 163.827 32.314 163.563 32.566C163.311 32.818 163.185 33.112 163.185 33.448C163.185 33.724 163.275 33.952 163.455 34.132C163.635 34.3 163.869 34.45 164.157 34.582C164.445 34.702 164.751 34.828 165.075 34.96C165.495 35.116 165.909 35.296 166.317 35.5C166.725 35.692 167.061 35.956 167.325 36.292C167.601 36.616 167.739 37.054 167.739 37.606C167.739 38.074 167.613 38.506 167.361 38.902C167.121 39.298 166.761 39.616 166.281 39.856C165.813 40.096 165.231 40.216 164.535 40.216Z" fill="white"/>
</svg>
