<?xml version="1.0" encoding="UTF-8"?>
<!DOCTYPE svg PUBLIC "-//W3C//DTD SVG 1.1//EN" "http://www.w3.org/Graphics/SVG/1.1/DTD/svg11.dtd">
<!-- Creator: CorelDRAW 2019 (64-Bit) -->
<svg xmlns="http://www.w3.org/2000/svg" xml:space="preserve" width="904px" height="126px" version="1.1" style="shape-rendering:geometricPrecision; text-rendering:geometricPrecision; image-rendering:optimizeQuality; fill-rule:evenodd; clip-rule:evenodd"
viewBox="0 0 83.32 11.64"
 xmlns:xlink="http://www.w3.org/1999/xlink">
 <defs>
  <style type="text/css">
   <![CDATA[
    .fil3 {fill:#FEFEFE}
    .fil2 {fill:#E31E24}
    .fil0 {fill:black}
    .fil1 {fill:#FEFEFE;fill-rule:nonzero}
   ]]>
  </style>
 </defs>
 <g id="Layer_x0020_1">
  <metadata id="CorelCorpID_0Corel-Layer"/>
  <rect class="fil0" width="83.32" height="11.64"/>
  <g id="_1992209254752">
   <path class="fil1" d="M2.81 2.74c0.19,0.02 0.43,0.05 0.56,0.09 0.27,0.06 0.31,0.21 0.32,0.56 0.02,0.34 0.02,0.97 0.02,2.2 0,1.28 -0.02,2.42 -0.04,2.71 -0.02,0.25 -0.09,0.38 -0.3,0.44 -0.2,0.05 -0.34,0.07 -0.66,0.11 -0.04,0.04 -0.04,0.28 0,0.34 0.29,0 0.9,-0.03 1.54,-0.03 0.65,0 2.13,0.06 2.89,0.06 0.36,0 0.47,-0.07 0.51,-0.16 0.22,-0.36 0.53,-1.56 0.58,-1.92 -0.03,-0.07 -0.26,-0.15 -0.33,-0.13 -0.19,0.45 -0.46,0.99 -0.67,1.28 -0.2,0.3 -0.38,0.37 -0.6,0.37 -0.46,0.02 -1.28,0.02 -1.54,-0.06 -0.06,-0.04 -0.19,-0.15 -0.2,-0.33 -0.02,-0.39 -0.02,-1.51 -0.02,-2.77 0.01,-1.07 0,-1.91 0.02,-2.21 0.01,-0.27 0.03,-0.38 0.27,-0.46 0.13,-0.02 0.25,-0.06 0.53,-0.09 0.04,-0.05 0.04,-0.3 0,-0.34 -0.3,0 -0.69,0.03 -1.41,0.03 -0.76,0 -1.08,-0.03 -1.45,-0.03 -0.04,0.03 -0.06,0.28 -0.02,0.34zm5.93 6.11c-0.04,0.04 -0.03,0.29 0,0.34 0.27,0 0.65,-0.03 1.14,-0.03 0.6,0 1.07,0.03 1.32,0.03 0.05,-0.05 0.07,-0.3 0.03,-0.34 -0.19,-0.03 -0.35,-0.06 -0.51,-0.1 -0.29,-0.07 -0.3,-0.21 -0.3,-0.38 0,-0.22 0.28,-1.02 0.48,-1.59 0.02,-0.04 0.07,-0.1 0.11,-0.1 0.13,-0.01 0.3,-0.01 0.85,-0.01 0.37,0 0.74,-0.01 0.89,0 0.04,0 0.08,0.05 0.1,0.07 0.17,0.45 0.45,1.31 0.55,1.72 0.03,0.08 0.03,0.2 -0.11,0.26 -0.11,0.05 -0.32,0.09 -0.52,0.13 -0.05,0.04 -0.04,0.28 0,0.34 0.29,0 0.78,-0.03 1.46,-0.03 0.62,0 1.13,0.03 1.39,0.03 0.04,-0.05 0.06,-0.3 0.03,-0.34 -0.76,-0.12 -0.82,-0.19 -1.15,-1.01 -0.36,-0.94 -1.36,-3.99 -1.65,-4.82 -0.06,-0.2 -0.12,-0.43 -0.16,-0.6 -0.09,0.01 -0.22,0.01 -0.43,0.01 -0.19,0 -0.34,0 -0.44,-0.01 -0.02,0.16 -0.11,0.47 -0.19,0.7 -0.24,0.75 -1.16,3.39 -1.71,4.77 -0.3,0.77 -0.44,0.85 -1.18,0.96zm3.18 -5.06c0.18,0.53 0.55,1.71 0.72,2.23 0,0.04 -0.02,0.08 -0.04,0.08 -0.11,0.01 -0.4,0.01 -0.7,0.01 -0.33,0 -0.61,0 -0.72,-0.01 -0.03,-0.01 -0.04,-0.03 -0.03,-0.08 0.18,-0.55 0.52,-1.65 0.71,-2.23 0.02,-0.01 0.05,0 0.06,0zm2.87 -1.05c0.19,0.03 0.33,0.05 0.47,0.1 0.33,0.1 0.45,0.3 0.73,1.02 0.3,0.79 0.87,2.37 1.41,3.88 0.21,0.57 0.36,1.07 0.49,1.51 0.18,-0.03 0.57,-0.03 0.76,0 0.09,-0.33 0.27,-0.86 0.53,-1.57 0.53,-1.38 1.18,-3.1 1.52,-3.89 0.23,-0.57 0.33,-0.8 0.63,-0.92 0.12,-0.06 0.3,-0.1 0.49,-0.13 0.04,-0.06 0.04,-0.31 0,-0.34 -0.25,0 -0.55,0.03 -1.16,0.03 -0.69,0 -1.09,-0.04 -1.26,-0.04 -0.04,0.04 -0.07,0.29 -0.04,0.35 0.26,0.03 0.46,0.07 0.62,0.11 0.29,0.08 0.34,0.28 0.21,0.65 -0.24,0.85 -1.22,3.49 -1.48,4.11 -0.02,0.02 -0.04,0.01 -0.06,0.01 -0.21,-0.54 -1.33,-3.6 -1.6,-4.42 -0.04,-0.16 -0.02,-0.27 0.11,-0.32 0.1,-0.04 0.29,-0.1 0.54,-0.14 0.04,-0.04 0.04,-0.31 -0.02,-0.34 -0.18,0 -0.8,0.03 -1.45,0.03 -0.5,0 -1.12,-0.03 -1.42,-0.03 -0.04,0.02 -0.06,0.28 -0.02,0.34zm7.21 0c0.34,0.03 0.55,0.1 0.75,0.21 0.24,0.12 0.33,0.4 0.33,0.62 -0.02,1.99 -0.05,3.94 -0.1,4.52 -0.03,0.39 -0.14,0.57 -0.39,0.64 -0.16,0.06 -0.33,0.09 -0.57,0.12 -0.03,0.04 -0.04,0.29 0,0.34 0.28,0 0.71,-0.03 1.3,-0.03 0.54,0 1.01,0.03 1.31,0.03 0.04,-0.06 0.06,-0.3 0.02,-0.34 -0.26,-0.04 -0.45,-0.06 -0.61,-0.12 -0.28,-0.07 -0.43,-0.22 -0.45,-0.68 -0.03,-0.54 -0.04,-2.95 -0.02,-4.12 0,-0.01 0.02,-0.03 0.05,0 0.66,0.88 3.27,4.42 3.85,5.29 0.17,-0.01 0.73,-0.02 0.87,0 -0.02,-0.39 -0.02,-1.02 -0.02,-1.52 0,-1.77 0.02,-3.32 0.09,-4.22 0.02,-0.39 0.1,-0.55 0.4,-0.65 0.13,-0.05 0.27,-0.07 0.42,-0.09 0.04,-0.04 0.04,-0.3 0,-0.34 -0.15,0 -0.68,0.03 -1.14,0.03 -0.66,0 -1.13,-0.03 -1.4,-0.03 -0.03,0.03 -0.05,0.3 0,0.34 0.27,0.03 0.46,0.05 0.66,0.11 0.33,0.09 0.41,0.27 0.44,0.6 0.05,0.77 0.04,2.53 0.04,3.98 -0.02,0.01 -0.02,0.03 -0.04,0.03 -0.58,-0.75 -2.44,-3.19 -3.38,-4.45 -0.25,-0.31 -0.34,-0.46 -0.38,-0.59 -0.12,0 -0.36,0.01 -0.62,0.01 -0.57,0 -1.09,-0.04 -1.4,-0.03 -0.03,0.04 -0.04,0.3 -0.01,0.34zm7.49 6.11c-0.04,0.04 -0.04,0.29 0,0.34 0.26,0 0.64,-0.03 1.13,-0.03 0.6,0 1.07,0.03 1.32,0.03 0.05,-0.05 0.07,-0.3 0.03,-0.34 -0.19,-0.03 -0.35,-0.06 -0.51,-0.1 -0.28,-0.07 -0.3,-0.21 -0.3,-0.38 0,-0.22 0.28,-1.02 0.48,-1.59 0.02,-0.04 0.07,-0.1 0.11,-0.1 0.13,-0.01 0.3,-0.01 0.85,-0.01 0.37,0 0.74,-0.01 0.9,0 0.03,0 0.08,0.05 0.09,0.07 0.17,0.45 0.45,1.31 0.56,1.72 0.02,0.08 0.02,0.2 -0.11,0.26 -0.12,0.05 -0.33,0.09 -0.53,0.13 -0.05,0.04 -0.04,0.28 0,0.34 0.3,0 0.79,-0.03 1.46,-0.03 0.63,0 1.13,0.03 1.39,0.03 0.05,-0.05 0.06,-0.3 0.03,-0.34 -0.76,-0.12 -0.82,-0.19 -1.14,-1.01 -0.37,-0.94 -1.37,-3.99 -1.65,-4.82 -0.06,-0.2 -0.13,-0.43 -0.16,-0.6 -0.1,0.01 -0.23,0.01 -0.43,0.01 -0.19,0 -0.35,0 -0.44,-0.01 -0.02,0.16 -0.11,0.47 -0.19,0.7 -0.25,0.75 -1.16,3.39 -1.72,4.77 -0.3,0.77 -0.44,0.85 -1.17,0.96zm3.17 -5.06c0.18,0.53 0.55,1.71 0.72,2.23 0,0.04 -0.02,0.08 -0.04,0.08 -0.11,0.01 -0.39,0.01 -0.7,0.01 -0.33,0 -0.61,0 -0.72,-0.01 -0.03,-0.01 -0.04,-0.03 -0.03,-0.08 0.18,-0.55 0.52,-1.65 0.72,-2.23 0.01,-0.01 0.05,0 0.05,0z"/>
   <path class="fil2" d="M69.68 4.11c-0.02,0.03 -0.06,0.07 -0.13,0.19 -0.05,0.1 -0.05,0.15 -0.08,0.24 -0.01,0.12 -0.01,0.22 -0.01,0.34 -0.03,0.01 -0.07,0.03 -0.09,0.05 -0.03,0.02 -0.07,0.05 -0.09,0.06l-0.01 0.01c-0.01,-0.22 -0.02,-0.46 0.05,-0.66 0.02,-0.04 0.06,-0.15 0.08,-0.17 0.01,-0.03 0.04,-0.06 0.05,-0.09 0.03,-0.03 0.04,-0.05 0.06,-0.07 0.03,-0.04 0.11,-0.12 0.14,-0.14 0.14,-0.13 0.39,-0.21 0.59,-0.21 0.12,0 0.23,0.02 0.34,0.06 0.08,0.04 0.19,0.1 0.25,0.15 0.02,0.01 0.04,0.04 0.06,0.05 0.04,0.04 0.13,0.13 0.15,0.19 0,0 0,0 0,0 0,0 0,0 0,0 0,0 0.01,0 0.01,0l0.01 0.01c0.02,0.04 0.07,0.13 0.07,0.17 0.05,0.08 -0.06,0.18 -0.14,0.11 -0.03,-0.02 -0.05,-0.08 -0.06,-0.11 -0.03,-0.04 -0.05,-0.07 -0.07,-0.1 -0.04,-0.05 -0.11,-0.15 -0.19,-0.19 -0.01,-0.01 -0.04,-0.03 -0.05,-0.04 -0.02,-0.01 -0.04,-0.02 -0.06,-0.03 -0.2,-0.1 -0.49,-0.09 -0.68,0.03 -0.14,0.08 -0.17,0.13 -0.2,0.15zm0.39 -0.61l0.34 0c0.04,0.01 0.07,0.02 0.11,0.03 0.06,0.01 0.11,0.04 0.16,0.05l0.1 0.05c0,0.01 0.07,0.05 0.09,0.06 0.03,0.03 0.06,0.05 0.09,0.07 0,0 0,0 0,0 0,0 0,0 0,0.01 0.01,0 0.01,0 0.01,0 0.03,0.03 0.07,0.07 0.1,0.1 0.03,0.04 0.07,0.08 0.1,0.13 0.03,0.04 0.11,0.19 0.12,0.26 0.01,0.04 0.02,0.14 0,0.16 -0.02,0.07 -0.09,0.14 -0.16,0.16 -0.04,0.01 -0.1,0.02 -0.14,0 -0.09,-0.01 -0.1,-0.04 -0.14,-0.07 -0.01,-0.01 0,0 -0.01,-0.01 -0.01,-0.03 -0.08,-0.19 -0.11,-0.21 -0.01,-0.03 -0.07,-0.09 -0.09,-0.1 -0.03,-0.03 -0.06,-0.05 -0.1,-0.08 -0.17,-0.1 -0.39,-0.1 -0.57,-0.01 -0.07,0.03 -0.18,0.12 -0.2,0.16 -0.04,0.03 -0.11,0.17 -0.12,0.22 -0.01,0.02 -0.03,0.1 -0.03,0.14l0 0.18c0.26,-0.1 0.49,-0.15 0.8,-0.12 0.25,0.03 0.52,0.13 0.7,0.25 0.09,0.04 0.25,0.2 0.33,0.29 0.05,0.05 0.07,0.07 0.11,0.14l0.06 0.08 0.12 0.24c0.12,0.26 0.21,0.65 0.16,0.94 0.01,0.07 -0.03,0.21 -0.05,0.27 -0.01,0.05 -0.02,0.09 -0.04,0.13 -0.01,0.02 -0.05,0.07 -0.09,0.04 -0.05,-0.01 -0.06,-0.04 -0.06,-0.1 0.03,-0.03 0.07,-0.22 0.08,-0.28 0.06,-0.44 -0.07,-0.91 -0.33,-1.25 -0.1,-0.14 -0.33,-0.36 -0.47,-0.41 -0.03,-0.03 -0.24,-0.11 -0.3,-0.13 -0.25,-0.07 -0.52,-0.06 -0.77,0 -0.16,0.04 -0.18,0.06 -0.31,0.12l-0.13 0.08c-0.1,0.06 -0.16,0.12 -0.23,0.19 -0.1,0.09 -0.21,0.25 -0.27,0.36 -0.05,0.09 -0.09,0.19 -0.12,0.3 -0.08,0.24 -0.11,0.49 -0.04,0.74 0.06,0.21 0.22,0.39 0.41,0.44 0.04,0.02 0.17,0.03 0.23,0.03 0.07,-0.01 0.1,0.03 0.1,0.1 -0.02,0.05 -0.03,0.06 -0.09,0.07 -0.05,0 -0.1,0 -0.15,-0.01 -0.09,0 -0.24,-0.06 -0.31,-0.11 -0.09,-0.06 -0.15,-0.12 -0.21,-0.2 -0.33,-0.48 -0.15,-1.2 0.16,-1.63 0.04,-0.06 0.14,-0.18 0.2,-0.23l0 -0.47 0.01 -0.14c0,-0.06 0.02,-0.12 0.03,-0.17 0.01,-0.06 0.03,-0.11 0.06,-0.16 0.01,-0.05 0.05,-0.1 0.06,-0.14l0.2 -0.25c0,-0.01 0,0 0,-0.01 0.02,0 0.03,-0.02 0.05,-0.04 0.02,-0.01 0.04,-0.03 0.05,-0.04 0,0 0.13,-0.09 0.14,-0.09 0.04,-0.02 0.08,-0.05 0.13,-0.06 0.03,-0.02 0.18,-0.06 0.23,-0.07l0 0z"/>
   <path class="fil2" d="M69.44 5.23c-0.03,0.03 -0.11,0.09 -0.15,0.13 -0.04,0.04 -0.08,0.09 -0.12,0.14 -0.07,0.09 -0.15,0.23 -0.2,0.35 -0.06,0.14 -0.1,0.28 -0.12,0.44 -0.02,0.19 0.01,0.32 0.09,0.46 0.06,0.06 0.07,0.1 0.16,0.16 0.07,0.04 0.15,0.07 0.24,0.07 0.1,0.01 0.14,-0.01 0.22,-0.03 0,0 0.05,-0.02 0.06,-0.03 0.01,-0.01 0.02,-0.01 0.03,-0.02 0.02,-0.02 0.01,-0.02 0.03,-0.02 0.01,-0.02 0.02,-0.02 0.04,-0.04 0.01,-0.01 0.02,-0.03 0.03,-0.05 0.02,-0.03 0.04,-0.06 0.06,-0.1 0.05,-0.17 0.04,-0.34 0.1,-0.45 0.13,-0.27 0.51,-0.29 0.66,-0.01 0.07,0.14 0.05,0.42 0.02,0.47 0,0.08 -0.08,0.25 -0.1,0.32 -0.01,0.01 -0.05,0.09 -0.06,0.11 -0.01,0.02 -0.03,0.04 -0.04,0.06 -0.01,0.01 -0.02,0.04 -0.03,0.04 -0.01,0.03 -0.03,0.05 -0.05,0.07 -0.01,0.01 -0.01,0.01 -0.02,0.02 -0.01,0.02 -0.01,0.02 -0.02,0.03 -0.07,0.06 -0.13,0.13 -0.21,0.18 -0.03,0.03 -0.16,0.11 -0.21,0.12 -0.03,0.03 -0.2,0.07 -0.26,0.08 -0.02,0 -0.1,0.01 -0.14,0.02 -0.02,0 -0.05,-0.01 -0.07,0 -0.01,0.01 -0.03,0.03 -0.04,0.04l0 0.04c0,0.1 0.1,0.09 0.19,0.08 0.08,-0.01 0.15,-0.03 0.22,-0.04 0.02,-0.01 0.07,-0.02 0.09,-0.03 0.03,-0.01 0.05,-0.02 0.08,-0.04 0.04,-0.01 0.14,-0.06 0.16,-0.08 0.04,-0.02 0.09,-0.07 0.13,-0.09 0,-0.01 0.05,-0.04 0.06,-0.06 0.03,-0.02 0.05,-0.04 0.07,-0.06 0.01,-0.02 0.03,-0.03 0.05,-0.05 0.02,-0.02 0.03,-0.04 0.05,-0.06l0.08 -0.12c0.04,-0.05 0.06,-0.1 0.09,-0.16 0.04,-0.07 0.1,-0.22 0.12,-0.3 0.07,-0.21 0.07,-0.5 -0.03,-0.69 -0.15,-0.27 -0.52,-0.37 -0.78,-0.16 -0.35,0.28 -0.11,0.65 -0.4,0.81 -0.1,0.05 -0.16,0.04 -0.28,0.01 -0.01,-0.01 -0.18,-0.05 -0.22,-0.29 -0.06,-0.26 0.09,-0.6 0.22,-0.81 0.06,-0.09 0.16,-0.22 0.24,-0.28 0.04,-0.03 0.1,-0.08 0.15,-0.11 0.38,-0.22 0.81,-0.23 1.2,-0.01 0.04,0.03 0.12,0.09 0.16,0.09 0.04,-0.01 0.08,-0.03 0.08,-0.08 0,-0.06 -0.04,-0.07 -0.07,-0.09 -0.39,-0.28 -0.95,-0.33 -1.37,-0.09 -0.1,0.05 -0.11,0.06 -0.19,0.11z"/>
   <path class="fil2" d="M69.63 5.54c0.01,0.01 0.01,0.03 0.04,0.04 0.06,0.02 0.1,-0.02 0.17,-0.06 0.05,-0.02 0.11,-0.04 0.17,-0.06 0.3,-0.08 0.59,0.01 0.83,0.2 0.03,0.02 0.12,0.12 0.14,0.15 0.03,0.02 0.09,0.15 0.11,0.2 0.04,0.08 0.06,0.17 0.08,0.26 0.03,0.21 0.01,0.39 -0.02,0.6 -0.03,0.1 -0.05,0.18 -0.08,0.28 -0.03,0.1 -0.07,0.18 -0.12,0.26 -0.01,0.02 -0.12,0.21 -0.15,0.22l0 0.01c-0.02,0.03 -0.1,0.12 -0.11,0.12 -0.02,0.02 -0.05,0.05 -0.07,0.07 -0.02,0.02 -0.04,0.03 -0.07,0.05 -0.03,0.03 -0.11,0.09 -0.15,0.1 -0.02,0.02 -0.04,0.06 -0.02,0.1 0.01,0.03 0.03,0.06 0.07,0.06 0.02,-0.01 0.04,-0.01 0.05,-0.02 0,0 0.01,-0.01 0.02,-0.01 0.01,-0.01 0,0 0.01,-0.01 0.05,-0.03 0.1,-0.07 0.14,-0.1l0.17 -0.15c0.01,-0.02 0.02,-0.03 0.04,-0.05 0.01,-0.02 0.03,-0.03 0.04,-0.05l0.08 -0.1c0.05,-0.07 0.14,-0.23 0.17,-0.32 0.02,-0.04 0.03,-0.08 0.05,-0.12 0.01,-0.04 0.03,-0.1 0.04,-0.13 0.02,-0.08 0.04,-0.15 0.06,-0.24 0.01,-0.08 0.02,-0.17 0.02,-0.26 0.01,-0.09 0,-0.19 -0.01,-0.28 0,-0.05 -0.03,-0.21 -0.05,-0.24 -0.05,-0.22 -0.24,-0.48 -0.43,-0.6 -0.36,-0.24 -0.8,-0.27 -1.17,-0.04 -0.05,0.03 -0.06,0.05 -0.05,0.12z"/>
   <path class="fil2" d="M70.18 6.49c-0.09,-0.09 0.03,-0.22 0.12,-0.15 0.04,0.04 0.04,0.09 0.01,0.14 -0.02,0.03 0.03,0.07 0.02,0.15 -0.04,0.03 -0.14,0.04 -0.18,0 -0.01,-0.06 0.02,-0.1 0.03,-0.14zm-0.26 0.27c0,0.05 -0.11,0.2 -0.14,0.22 -0.01,0.01 -0.03,0.03 -0.04,0.04 -0.01,0 -0.02,0.01 -0.03,0.02 -0.01,0.01 -0.01,0.01 -0.02,0.02 -0.02,0.05 -0.02,0.08 0.02,0.12 0.05,0.03 0.09,0 0.12,-0.02 0.06,-0.05 0.12,-0.12 0.13,-0.13l0.02 -0.03c0.06,-0.1 0.09,-0.22 0.17,-0.22 0.06,0 0.08,0.09 0.05,0.15 0,0.03 -0.05,0.12 -0.08,0.14 0,0.02 -0.03,0.05 -0.05,0.07 -0.01,0.02 -0.02,0.02 -0.03,0.03 -0.01,0.02 -0.01,0.02 -0.03,0.04 -0.05,0.04 -0.12,0.1 -0.19,0.13 -0.1,0.07 -0.25,0.1 -0.38,0.12 -0.17,0.01 -0.25,-0.01 -0.4,-0.04 -0.05,-0.01 -0.07,0.02 -0.08,0.06 -0.01,0.02 0,0.06 0.01,0.07 0.04,0.08 0.43,0.08 0.52,0.07 0.06,-0.01 0.13,-0.02 0.19,-0.04 0.1,-0.03 0.18,-0.08 0.26,-0.12l0.14 -0.1c0.03,-0.03 0.03,-0.04 0.05,-0.05l0.1 -0.11c0,-0.01 0,0 0.01,-0.01l0.02 -0.04c0.04,-0.04 0.08,-0.11 0.1,-0.16 0.05,-0.09 0.07,-0.16 0.1,-0.26 0.03,-0.13 0.06,-0.28 0.01,-0.41 -0.09,-0.24 -0.42,-0.23 -0.48,0.06 -0.01,0.06 -0.01,0.32 -0.07,0.38z"/>
   <path class="fil2" d="M69.47 6.28c-0.05,0.47 -0.25,0.24 -0.12,-0.17 0.03,-0.1 0.07,-0.19 0.13,-0.27 0.04,-0.06 0.03,-0.05 0.02,-0.11 -0.08,-0.08 -0.11,-0.05 -0.17,0.04 -0.06,0.09 -0.08,0.16 -0.1,0.2 -0.04,0.15 -0.06,0.14 -0.08,0.32 0,0.06 -0.01,0.13 0,0.19 0.01,0.04 0.03,0.1 0.05,0.13 0.01,0.01 0,0 0.01,0.01 0.02,0.03 0.06,0.06 0.1,0.08 0.04,0.01 0.11,0.02 0.14,-0.01 0.17,-0.06 0.16,-0.42 0.23,-0.58 0.07,-0.21 0.19,-0.33 0.42,-0.37 0.12,-0.02 0.24,-0.02 0.35,0.02 0.07,0.02 0.13,0.06 0.19,0.1 0.07,0.06 0.05,0.05 0.08,0.08 0.09,0.08 0.15,0.25 0.17,0.38 0.01,0.06 0.04,0.11 0.1,0.1 0.09,-0.03 0.06,-0.14 0.04,-0.22 -0.21,-0.78 -1.12,-0.8 -1.41,-0.33 -0.03,0.04 -0.05,0.07 -0.07,0.12 -0.08,0.17 -0.05,0.21 -0.08,0.29z"/>
   <path class="fil2" d="M71.41 7.01c-0.01,0.05 -0.06,0.21 -0.08,0.24 -0.02,0.08 -0.11,0.29 -0.16,0.35 -0.01,0.05 -0.08,0.12 -0.08,0.17 0.01,0.05 0.02,0.04 0.04,0.07 0.05,0.02 0.07,0.02 0.11,-0.02 0.02,-0.04 0.04,-0.07 0.06,-0.11 0.01,-0.02 0.04,-0.09 0.06,-0.1 0.01,-0.04 0.04,-0.1 0.06,-0.14 0.02,-0.04 0.04,-0.09 0.05,-0.13 0.02,-0.05 0.04,-0.09 0.05,-0.14 0.01,-0.04 0.03,-0.12 0.04,-0.14 0.01,-0.07 0.03,-0.14 0.04,-0.22 0.04,-0.24 0.04,-0.47 -0.01,-0.7 -0.03,-0.19 -0.11,-0.4 -0.21,-0.55 -0.04,-0.06 -0.07,-0.12 -0.13,-0.11 -0.08,0.01 -0.09,0.1 -0.05,0.15 0.29,0.38 0.32,0.92 0.21,1.38z"/>
   <path class="fil2" d="M70.95 6.63c-0.07,0.02 -0.06,0.1 -0.08,0.19 -0.01,0.05 -0.07,0.25 -0.1,0.27 0,0.03 -0.06,0.14 -0.07,0.16 -0.03,0.06 -0.16,0.23 -0.2,0.27 -0.02,0.02 -0.03,0.04 -0.06,0.06 -0.01,0.02 -0.05,0.06 -0.06,0.07 -0.03,0.03 -0.11,0.09 -0.15,0.12 -0.04,0.03 -0.09,0.06 -0.13,0.09 -0.05,0.03 -0.1,0.05 -0.15,0.07 -0.05,0.02 -0.08,0.03 -0.09,0.09 0,0.04 0.01,0.05 0.02,0.07 0.02,0.01 0.05,0.03 0.09,0.02 0.02,-0.01 0.05,-0.03 0.08,-0.03 0.01,-0.02 0.08,-0.05 0.11,-0.07 0.04,-0.02 0.08,-0.05 0.11,-0.06 0,-0.01 0.01,-0.01 0.01,-0.01l0.02 -0.01c0.01,-0.01 0.01,-0.01 0.02,-0.02l0.16 -0.13c0.01,-0.02 0.02,-0.02 0.04,-0.04 0.01,-0.01 0.02,-0.02 0.03,-0.03 0.02,-0.03 0.04,-0.05 0.07,-0.07 0.02,-0.03 0.05,-0.06 0.07,-0.09 0.02,-0.03 0.04,-0.06 0.07,-0.09 0,-0.01 0.02,-0.03 0.03,-0.05l0.09 -0.15c0.03,-0.07 0.06,-0.14 0.09,-0.22 0.03,-0.08 0.05,-0.15 0.07,-0.23 0,-0.04 0.02,-0.1 0,-0.14 -0.01,-0.02 -0.05,-0.06 -0.09,-0.04z"/>
   <path class="fil1" d="M47.43 7.74c0.09,0.02 0.2,0.03 0.34,0.04 0.13,0.01 0.28,0.01 0.45,0.01 0.32,0 0.6,-0.04 0.85,-0.11 0.25,-0.08 0.46,-0.2 0.63,-0.36 0.07,-0.07 0.14,-0.15 0.2,-0.24 0.07,-0.1 0.13,-0.21 0.18,-0.34 0.05,-0.13 0.09,-0.27 0.12,-0.44 0.03,-0.17 0.05,-0.35 0.05,-0.56 0,-0.35 -0.05,-0.65 -0.15,-0.89 -0.09,-0.24 -0.23,-0.44 -0.4,-0.59 -0.1,-0.09 -0.22,-0.17 -0.35,-0.23 -0.12,-0.05 -0.27,-0.1 -0.43,-0.13 -0.16,-0.03 -0.35,-0.04 -0.55,-0.04 -0.18,0 -0.35,0 -0.51,0.02 -0.16,0.01 -0.3,0.03 -0.43,0.06l0 3.8zm0.69 -3.27c0.04,-0.01 0.09,-0.02 0.14,-0.02 0.06,-0.01 0.12,-0.01 0.2,-0.01 0.22,0 0.4,0.05 0.56,0.14 0.16,0.1 0.28,0.25 0.36,0.44 0.09,0.19 0.13,0.44 0.13,0.73 0,0.25 -0.02,0.47 -0.08,0.66 -0.05,0.18 -0.13,0.33 -0.22,0.45 -0.1,0.12 -0.22,0.2 -0.36,0.26 -0.13,0.05 -0.29,0.08 -0.45,0.08 -0.05,0 -0.1,0 -0.15,0 -0.05,0 -0.09,-0.01 -0.13,-0.02l0 -2.71zm3.37 3.29l0 -3.87 -0.71 0 0 3.87 0.71 0zm2.15 -2.16l0 0.59 0.53 0 0 0.94c-0.03,0.02 -0.08,0.03 -0.14,0.04 -0.06,0.01 -0.13,0.02 -0.22,0.02 -0.15,0 -0.29,-0.03 -0.42,-0.09 -0.13,-0.05 -0.24,-0.14 -0.33,-0.25 -0.1,-0.11 -0.17,-0.25 -0.22,-0.42 -0.06,-0.17 -0.08,-0.37 -0.08,-0.59 0,-0.23 0.03,-0.44 0.08,-0.61 0.06,-0.17 0.14,-0.31 0.24,-0.42 0.11,-0.11 0.23,-0.2 0.37,-0.25 0.14,-0.05 0.29,-0.08 0.45,-0.08 0.11,0 0.2,0.01 0.29,0.02 0.08,0.01 0.16,0.03 0.23,0.05 0.06,0.02 0.13,0.04 0.18,0.07l0.15 -0.61c-0.06,-0.03 -0.13,-0.06 -0.22,-0.09 -0.09,-0.02 -0.18,-0.04 -0.29,-0.05 -0.11,-0.02 -0.22,-0.02 -0.35,-0.02 -0.21,0 -0.41,0.02 -0.6,0.08 -0.18,0.05 -0.36,0.14 -0.51,0.25 -0.16,0.11 -0.29,0.24 -0.4,0.4 -0.12,0.16 -0.21,0.35 -0.27,0.56 -0.06,0.22 -0.09,0.45 -0.09,0.71 0,0.21 0.02,0.4 0.06,0.59 0.04,0.18 0.09,0.34 0.17,0.5 0.07,0.15 0.16,0.28 0.26,0.39 0.16,0.16 0.34,0.28 0.55,0.35 0.22,0.08 0.46,0.12 0.74,0.12 0.14,0 0.28,-0.01 0.41,-0.03 0.13,-0.02 0.25,-0.05 0.36,-0.08 0.11,-0.02 0.2,-0.05 0.27,-0.08l0 -2.01 -1.2 0zm2.53 2.16l0 -3.87 -0.7 0 0 3.87 0.7 0zm0.42 -3.87l0 0.64 0.9 0 0 3.23 0.7 0 0 -3.23 0.91 0 0 -0.64 -2.51 0zm3.69 0l-1.03 3.87 0.71 0 0.25 -1.02 0.98 0 0.26 1.02 0.74 0 -1.02 -3.87 -0.89 0zm0.25 1.4c0.02,-0.08 0.03,-0.16 0.05,-0.26 0.02,-0.09 0.04,-0.18 0.06,-0.27 0.02,-0.09 0.03,-0.18 0.05,-0.26l0.01 0c0.02,0.08 0.04,0.17 0.06,0.26 0.01,0.09 0.03,0.18 0.05,0.27 0.02,0.09 0.04,0.18 0.06,0.26l0.22 0.88 -0.78 0 0.22 -0.88zm2.84 1.84l0 -3.24 -0.71 0 0 3.87 2.01 0 0 -0.63 -1.3 0zm3.51 0l0 -3.24 -0.71 0 0 3.87 2.01 0 0 -0.63 -1.3 0zm8.25 -3.15c-0.04,-0.02 -0.09,-0.05 -0.16,-0.07 -0.06,-0.02 -0.15,-0.04 -0.25,-0.06 -0.1,-0.01 -0.22,-0.02 -0.35,-0.02 -0.19,0 -0.38,0.03 -0.56,0.08 -0.17,0.06 -0.34,0.14 -0.49,0.25 -0.15,0.11 -0.28,0.24 -0.39,0.41 -0.11,0.16 -0.19,0.35 -0.26,0.57 -0.06,0.21 -0.09,0.46 -0.09,0.73 0,0.29 0.04,0.55 0.11,0.79 0.08,0.23 0.19,0.44 0.33,0.61 0.15,0.17 0.33,0.3 0.54,0.4 0.21,0.09 0.45,0.14 0.73,0.14 0.12,0 0.24,-0.01 0.34,-0.02 0.11,-0.02 0.2,-0.04 0.28,-0.06 0.08,-0.02 0.14,-0.04 0.19,-0.07l-0.1 -0.6c-0.05,0.03 -0.11,0.04 -0.17,0.06 -0.07,0.02 -0.14,0.03 -0.21,0.04 -0.07,0.01 -0.14,0.01 -0.22,0.01 -0.22,0 -0.41,-0.05 -0.57,-0.15 -0.16,-0.1 -0.29,-0.25 -0.38,-0.45 -0.09,-0.2 -0.13,-0.45 -0.13,-0.74 0,-0.23 0.03,-0.44 0.08,-0.61 0.06,-0.17 0.14,-0.32 0.24,-0.43 0.1,-0.11 0.21,-0.2 0.34,-0.25 0.13,-0.06 0.27,-0.09 0.43,-0.09 0.12,0.01 0.23,0.02 0.33,0.04 0.1,0.03 0.18,0.06 0.25,0.09l0.14 -0.6zm3.05 -0.09l-0.84 0 -0.78 1.3c-0.04,0.08 -0.08,0.15 -0.12,0.22 -0.04,0.08 -0.08,0.15 -0.12,0.23l-0.01 0 0 -1.75 -0.7 0 0 3.87 0.7 0 0 -1.33 0.27 -0.38 0.85 1.71 0.8 0 -1.16 -2.22 1.11 -1.65zm0.23 3.7c0.06,0.04 0.13,0.08 0.23,0.11 0.09,0.03 0.2,0.06 0.31,0.08 0.12,0.02 0.24,0.03 0.36,0.03 0.21,0 0.4,-0.03 0.57,-0.09 0.16,-0.06 0.3,-0.14 0.41,-0.24 0.12,-0.11 0.2,-0.23 0.26,-0.37 0.06,-0.14 0.09,-0.3 0.09,-0.47 0,-0.17 -0.03,-0.32 -0.09,-0.46 -0.06,-0.14 -0.15,-0.26 -0.28,-0.38 -0.12,-0.11 -0.28,-0.21 -0.48,-0.3 -0.11,-0.06 -0.2,-0.11 -0.28,-0.15 -0.08,-0.05 -0.15,-0.09 -0.2,-0.14 -0.05,-0.05 -0.09,-0.1 -0.11,-0.15 -0.02,-0.05 -0.03,-0.11 -0.03,-0.18 0,-0.08 0.01,-0.15 0.05,-0.21 0.04,-0.06 0.1,-0.12 0.18,-0.16 0.08,-0.04 0.18,-0.06 0.3,-0.06 0.1,0 0.19,0.01 0.28,0.03 0.08,0.01 0.15,0.04 0.21,0.06 0.07,0.03 0.12,0.05 0.16,0.08l0.15 -0.61c-0.06,-0.03 -0.12,-0.06 -0.2,-0.09 -0.08,-0.03 -0.17,-0.05 -0.26,-0.06 -0.1,-0.02 -0.21,-0.03 -0.32,-0.03 -0.2,0 -0.38,0.03 -0.53,0.09 -0.16,0.05 -0.29,0.13 -0.4,0.23 -0.11,0.11 -0.19,0.22 -0.25,0.36 -0.05,0.14 -0.08,0.28 -0.08,0.44 0,0.17 0.03,0.32 0.11,0.46 0.07,0.14 0.17,0.26 0.3,0.37 0.14,0.11 0.3,0.21 0.48,0.29 0.14,0.06 0.24,0.12 0.33,0.19 0.09,0.06 0.15,0.12 0.19,0.2 0.04,0.07 0.06,0.15 0.06,0.24 0,0.1 -0.02,0.18 -0.07,0.25 -0.04,0.08 -0.11,0.13 -0.2,0.17 -0.08,0.04 -0.19,0.06 -0.32,0.06 -0.1,0 -0.2,-0.01 -0.3,-0.02 -0.09,-0.02 -0.18,-0.05 -0.27,-0.08 -0.08,-0.03 -0.16,-0.07 -0.22,-0.11l-0.14 0.62z"/>
   <polygon class="fil3" points="41.7,2.32 42.16,2.32 42.16,9.32 41.7,9.32 "/>
   <path class="fil2" d="M69.68 4.11c-0.02,0.03 -0.06,0.07 -0.13,0.19 -0.05,0.1 -0.05,0.15 -0.08,0.24 -0.01,0.12 -0.01,0.22 -0.01,0.34 -0.03,0.01 -0.07,0.03 -0.09,0.05 -0.03,0.02 -0.07,0.05 -0.09,0.06l-0.01 0.01c-0.01,-0.22 -0.02,-0.46 0.05,-0.66 0.02,-0.04 0.06,-0.15 0.08,-0.17 0.01,-0.03 0.04,-0.06 0.05,-0.09 0.03,-0.03 0.04,-0.05 0.06,-0.07 0.03,-0.04 0.11,-0.12 0.14,-0.14 0.14,-0.13 0.39,-0.21 0.59,-0.21 0.12,0 0.23,0.02 0.34,0.06 0.08,0.04 0.19,0.1 0.25,0.15 0.02,0.01 0.04,0.04 0.06,0.05 0.04,0.04 0.13,0.13 0.15,0.19 0,0 0,0 0,0 0,0 0,0 0,0 0,0 0.01,0 0.01,0l0.01 0.01c0.02,0.04 0.07,0.13 0.07,0.17 0.05,0.08 -0.06,0.18 -0.14,0.11 -0.03,-0.02 -0.05,-0.08 -0.06,-0.11 -0.03,-0.04 -0.05,-0.07 -0.07,-0.1 -0.04,-0.05 -0.11,-0.15 -0.19,-0.19 -0.01,-0.01 -0.04,-0.03 -0.05,-0.04 -0.02,-0.01 -0.04,-0.02 -0.06,-0.03 -0.2,-0.1 -0.49,-0.09 -0.68,0.03 -0.14,0.08 -0.17,0.13 -0.2,0.15zm0.39 -0.61l0.34 0c0.04,0.01 0.07,0.02 0.11,0.03 0.06,0.01 0.11,0.04 0.16,0.05l0.1 0.05c0,0.01 0.07,0.05 0.09,0.06 0.03,0.03 0.06,0.05 0.09,0.07 0,0 0,0 0,0 0,0 0,0 0,0.01 0.01,0 0.01,0 0.01,0 0.03,0.03 0.07,0.07 0.1,0.1 0.03,0.04 0.07,0.08 0.1,0.13 0.03,0.04 0.11,0.19 0.12,0.26 0.01,0.04 0.02,0.14 0,0.16 -0.02,0.07 -0.09,0.14 -0.16,0.16 -0.04,0.01 -0.1,0.02 -0.14,0 -0.09,-0.01 -0.1,-0.04 -0.14,-0.07 -0.01,-0.01 0,0 -0.01,-0.01 -0.01,-0.03 -0.08,-0.19 -0.11,-0.21 -0.01,-0.03 -0.07,-0.09 -0.09,-0.1 -0.03,-0.03 -0.06,-0.05 -0.1,-0.08 -0.17,-0.1 -0.39,-0.1 -0.57,-0.01 -0.07,0.03 -0.18,0.12 -0.2,0.16 -0.04,0.03 -0.11,0.17 -0.12,0.22 -0.01,0.02 -0.03,0.1 -0.03,0.14l0 0.18c0.26,-0.1 0.49,-0.15 0.8,-0.12 0.25,0.03 0.52,0.13 0.7,0.25 0.09,0.04 0.25,0.2 0.33,0.29 0.05,0.05 0.07,0.07 0.11,0.14l0.06 0.08 0.12 0.24c0.12,0.26 0.21,0.65 0.16,0.94 0.01,0.07 -0.03,0.21 -0.05,0.27 -0.01,0.05 -0.02,0.09 -0.04,0.13 -0.01,0.02 -0.05,0.07 -0.09,0.04 -0.05,-0.01 -0.06,-0.04 -0.06,-0.1 0.03,-0.03 0.07,-0.22 0.08,-0.28 0.06,-0.44 -0.07,-0.91 -0.33,-1.25 -0.1,-0.14 -0.33,-0.36 -0.47,-0.41 -0.03,-0.03 -0.24,-0.11 -0.3,-0.13 -0.25,-0.07 -0.52,-0.06 -0.77,0 -0.16,0.04 -0.18,0.06 -0.31,0.12l-0.13 0.08c-0.1,0.06 -0.16,0.12 -0.23,0.19 -0.1,0.09 -0.21,0.25 -0.27,0.36 -0.05,0.09 -0.09,0.19 -0.12,0.3 -0.08,0.24 -0.11,0.49 -0.04,0.74 0.06,0.21 0.22,0.39 0.41,0.44 0.04,0.02 0.17,0.03 0.23,0.03 0.07,-0.01 0.1,0.03 0.1,0.1 -0.02,0.05 -0.03,0.06 -0.09,0.07 -0.05,0 -0.1,0 -0.15,-0.01 -0.09,0 -0.24,-0.06 -0.31,-0.11 -0.09,-0.06 -0.15,-0.12 -0.21,-0.2 -0.33,-0.48 -0.15,-1.2 0.16,-1.63 0.04,-0.06 0.14,-0.18 0.2,-0.23l0 -0.47 0.01 -0.14c0,-0.06 0.02,-0.12 0.03,-0.17 0.01,-0.06 0.03,-0.11 0.06,-0.16 0.01,-0.05 0.05,-0.1 0.06,-0.14l0.2 -0.25c0,-0.01 0,0 0,-0.01 0.02,0 0.03,-0.02 0.05,-0.04 0.02,-0.01 0.04,-0.03 0.05,-0.04 0,0 0.13,-0.09 0.14,-0.09 0.04,-0.02 0.08,-0.05 0.13,-0.06 0.03,-0.02 0.18,-0.06 0.23,-0.07l0 0z"/>
   <path class="fil2" d="M69.44 5.23c-0.03,0.03 -0.11,0.09 -0.15,0.13 -0.04,0.04 -0.08,0.09 -0.12,0.14 -0.07,0.09 -0.15,0.23 -0.2,0.35 -0.06,0.14 -0.1,0.28 -0.12,0.44 -0.02,0.19 0.01,0.32 0.09,0.46 0.06,0.06 0.07,0.1 0.16,0.16 0.07,0.04 0.15,0.07 0.24,0.07 0.1,0.01 0.14,-0.01 0.22,-0.03 0,0 0.05,-0.02 0.06,-0.03 0.01,-0.01 0.02,-0.01 0.03,-0.02 0.02,-0.02 0.01,-0.02 0.03,-0.02 0.01,-0.02 0.02,-0.02 0.04,-0.04 0.01,-0.01 0.02,-0.03 0.03,-0.05 0.02,-0.03 0.04,-0.06 0.06,-0.1 0.05,-0.17 0.04,-0.34 0.1,-0.45 0.13,-0.27 0.51,-0.29 0.66,-0.01 0.07,0.14 0.05,0.42 0.02,0.47 0,0.08 -0.08,0.25 -0.1,0.32 -0.01,0.01 -0.05,0.09 -0.06,0.11 -0.01,0.02 -0.03,0.04 -0.04,0.06 -0.01,0.01 -0.02,0.04 -0.03,0.04 -0.01,0.03 -0.03,0.05 -0.05,0.07 -0.01,0.01 -0.01,0.01 -0.02,0.02 -0.01,0.02 -0.01,0.02 -0.02,0.03 -0.07,0.06 -0.13,0.13 -0.21,0.18 -0.03,0.03 -0.16,0.11 -0.21,0.12 -0.03,0.03 -0.2,0.07 -0.26,0.08 -0.02,0 -0.1,0.01 -0.14,0.02 -0.02,0 -0.05,-0.01 -0.07,0 -0.01,0.01 -0.03,0.03 -0.04,0.04l0 0.04c0,0.1 0.1,0.09 0.19,0.08 0.08,-0.01 0.15,-0.03 0.22,-0.04 0.02,-0.01 0.07,-0.02 0.09,-0.03 0.03,-0.01 0.05,-0.02 0.08,-0.04 0.04,-0.01 0.14,-0.06 0.16,-0.08 0.04,-0.02 0.09,-0.07 0.13,-0.09 0,-0.01 0.05,-0.04 0.06,-0.06 0.03,-0.02 0.05,-0.04 0.07,-0.06 0.01,-0.02 0.03,-0.03 0.05,-0.05 0.02,-0.02 0.03,-0.04 0.05,-0.06l0.08 -0.12c0.04,-0.05 0.06,-0.1 0.09,-0.16 0.04,-0.07 0.1,-0.22 0.12,-0.3 0.07,-0.21 0.07,-0.5 -0.03,-0.69 -0.15,-0.27 -0.52,-0.37 -0.78,-0.16 -0.35,0.28 -0.11,0.65 -0.4,0.81 -0.1,0.05 -0.16,0.04 -0.28,0.01 -0.01,-0.01 -0.18,-0.05 -0.22,-0.29 -0.06,-0.26 0.09,-0.6 0.22,-0.81 0.06,-0.09 0.16,-0.22 0.24,-0.28 0.04,-0.03 0.1,-0.08 0.15,-0.11 0.38,-0.22 0.81,-0.23 1.2,-0.01 0.04,0.03 0.12,0.09 0.16,0.09 0.04,-0.01 0.08,-0.03 0.08,-0.08 0,-0.06 -0.04,-0.07 -0.07,-0.09 -0.39,-0.28 -0.95,-0.33 -1.37,-0.09 -0.1,0.05 -0.11,0.06 -0.19,0.11z"/>
   <path class="fil2" d="M69.63 5.54c0.01,0.01 0.01,0.03 0.04,0.04 0.06,0.02 0.1,-0.02 0.17,-0.06 0.05,-0.02 0.11,-0.04 0.17,-0.06 0.3,-0.08 0.59,0.01 0.83,0.2 0.03,0.02 0.12,0.12 0.14,0.15 0.03,0.02 0.09,0.15 0.11,0.2 0.04,0.08 0.06,0.17 0.08,0.26 0.03,0.21 0.01,0.39 -0.02,0.6 -0.03,0.1 -0.05,0.18 -0.08,0.28 -0.03,0.1 -0.07,0.18 -0.12,0.26 -0.01,0.02 -0.12,0.21 -0.15,0.22l0 0.01c-0.02,0.03 -0.1,0.12 -0.11,0.12 -0.02,0.02 -0.05,0.05 -0.07,0.07 -0.02,0.02 -0.04,0.03 -0.07,0.05 -0.03,0.03 -0.11,0.09 -0.15,0.1 -0.02,0.02 -0.04,0.06 -0.02,0.1 0.01,0.03 0.03,0.06 0.07,0.06 0.02,-0.01 0.04,-0.01 0.05,-0.02 0,0 0.01,-0.01 0.02,-0.01 0.01,-0.01 0,0 0.01,-0.01 0.05,-0.03 0.1,-0.07 0.14,-0.1l0.17 -0.15c0.01,-0.02 0.02,-0.03 0.04,-0.05 0.01,-0.02 0.03,-0.03 0.04,-0.05l0.08 -0.1c0.05,-0.07 0.14,-0.23 0.17,-0.32 0.02,-0.04 0.03,-0.08 0.05,-0.12 0.01,-0.04 0.03,-0.1 0.04,-0.13 0.02,-0.08 0.04,-0.15 0.06,-0.24 0.01,-0.08 0.02,-0.17 0.02,-0.26 0.01,-0.09 0,-0.19 -0.01,-0.28 0,-0.05 -0.03,-0.21 -0.05,-0.24 -0.05,-0.22 -0.24,-0.48 -0.43,-0.6 -0.36,-0.24 -0.8,-0.27 -1.17,-0.04 -0.05,0.03 -0.06,0.05 -0.05,0.12z"/>
   <path class="fil2" d="M70.18 6.49c-0.09,-0.09 0.03,-0.22 0.12,-0.15 0.04,0.04 0.04,0.09 0.01,0.14 -0.02,0.03 0.03,0.07 0.02,0.15 -0.04,0.03 -0.14,0.04 -0.18,0 -0.01,-0.06 0.02,-0.1 0.03,-0.14zm-0.26 0.27c0,0.05 -0.11,0.2 -0.14,0.22 -0.01,0.01 -0.03,0.03 -0.04,0.04 -0.01,0 -0.02,0.01 -0.03,0.02 -0.01,0.01 -0.01,0.01 -0.02,0.02 -0.02,0.05 -0.02,0.08 0.02,0.12 0.05,0.03 0.09,0 0.12,-0.02 0.06,-0.05 0.12,-0.12 0.13,-0.13l0.02 -0.03c0.06,-0.1 0.09,-0.22 0.17,-0.22 0.06,0 0.08,0.09 0.05,0.15 0,0.03 -0.05,0.12 -0.08,0.14 0,0.02 -0.03,0.05 -0.05,0.07 -0.01,0.02 -0.02,0.02 -0.03,0.03 -0.01,0.02 -0.01,0.02 -0.03,0.04 -0.05,0.04 -0.12,0.1 -0.19,0.13 -0.1,0.07 -0.25,0.1 -0.38,0.12 -0.17,0.01 -0.25,-0.01 -0.4,-0.04 -0.05,-0.01 -0.07,0.02 -0.08,0.06 -0.01,0.02 0,0.06 0.01,0.07 0.04,0.08 0.43,0.08 0.52,0.07 0.06,-0.01 0.13,-0.02 0.19,-0.04 0.1,-0.03 0.18,-0.08 0.26,-0.12l0.14 -0.1c0.03,-0.03 0.03,-0.04 0.05,-0.05l0.1 -0.11c0,-0.01 0,0 0.01,-0.01l0.02 -0.04c0.04,-0.04 0.08,-0.11 0.1,-0.16 0.05,-0.09 0.07,-0.16 0.1,-0.26 0.03,-0.13 0.06,-0.28 0.01,-0.41 -0.09,-0.24 -0.42,-0.23 -0.48,0.06 -0.01,0.06 -0.01,0.32 -0.07,0.38z"/>
   <path class="fil2" d="M69.47 6.28c-0.05,0.47 -0.25,0.24 -0.12,-0.17 0.03,-0.1 0.07,-0.19 0.13,-0.27 0.04,-0.06 0.03,-0.05 0.02,-0.11 -0.08,-0.08 -0.11,-0.05 -0.17,0.04 -0.06,0.09 -0.08,0.16 -0.1,0.2 -0.04,0.15 -0.06,0.14 -0.08,0.32 0,0.06 -0.01,0.13 0,0.19 0.01,0.04 0.03,0.1 0.05,0.13 0.01,0.01 0,0 0.01,0.01 0.02,0.03 0.06,0.06 0.1,0.08 0.04,0.01 0.11,0.02 0.14,-0.01 0.17,-0.06 0.16,-0.42 0.23,-0.58 0.07,-0.21 0.19,-0.33 0.42,-0.37 0.12,-0.02 0.24,-0.02 0.35,0.02 0.07,0.02 0.13,0.06 0.19,0.1 0.07,0.06 0.05,0.05 0.08,0.08 0.09,0.08 0.15,0.25 0.17,0.38 0.01,0.06 0.04,0.11 0.1,0.1 0.09,-0.03 0.06,-0.14 0.04,-0.22 -0.21,-0.78 -1.12,-0.8 -1.41,-0.33 -0.03,0.04 -0.05,0.07 -0.07,0.12 -0.08,0.17 -0.05,0.21 -0.08,0.29z"/>
   <path class="fil2" d="M71.41 7.01c-0.01,0.05 -0.06,0.21 -0.08,0.24 -0.02,0.08 -0.11,0.29 -0.16,0.35 -0.01,0.05 -0.08,0.12 -0.08,0.17 0.01,0.05 0.02,0.04 0.04,0.07 0.05,0.02 0.07,0.02 0.11,-0.02 0.02,-0.04 0.04,-0.07 0.06,-0.11 0.01,-0.02 0.04,-0.09 0.06,-0.1 0.01,-0.04 0.04,-0.1 0.06,-0.14 0.02,-0.04 0.04,-0.09 0.05,-0.13 0.02,-0.05 0.04,-0.09 0.05,-0.14 0.01,-0.04 0.03,-0.12 0.04,-0.14 0.01,-0.07 0.03,-0.14 0.04,-0.22 0.04,-0.24 0.04,-0.47 -0.01,-0.7 -0.03,-0.19 -0.11,-0.4 -0.21,-0.55 -0.04,-0.06 -0.07,-0.12 -0.13,-0.11 -0.08,0.01 -0.09,0.1 -0.05,0.15 0.29,0.38 0.32,0.92 0.21,1.38z"/>
   <path class="fil2" d="M70.95 6.63c-0.07,0.02 -0.06,0.1 -0.08,0.19 -0.01,0.05 -0.07,0.25 -0.1,0.27 0,0.03 -0.06,0.14 -0.07,0.16 -0.03,0.06 -0.16,0.23 -0.2,0.27 -0.02,0.02 -0.03,0.04 -0.06,0.06 -0.01,0.02 -0.05,0.06 -0.06,0.07 -0.03,0.03 -0.11,0.09 -0.15,0.12 -0.04,0.03 -0.09,0.06 -0.13,0.09 -0.05,0.03 -0.1,0.05 -0.15,0.07 -0.05,0.02 -0.08,0.03 -0.09,0.09 0,0.04 0.01,0.05 0.02,0.07 0.02,0.01 0.05,0.03 0.09,0.02 0.02,-0.01 0.05,-0.03 0.08,-0.03 0.01,-0.02 0.08,-0.05 0.11,-0.07 0.04,-0.02 0.08,-0.05 0.11,-0.06 0,-0.01 0.01,-0.01 0.01,-0.01l0.02 -0.01c0.01,-0.01 0.01,-0.01 0.02,-0.02l0.16 -0.13c0.01,-0.02 0.02,-0.02 0.04,-0.04 0.01,-0.01 0.02,-0.02 0.03,-0.03 0.02,-0.03 0.04,-0.05 0.07,-0.07 0.02,-0.03 0.05,-0.06 0.07,-0.09 0.02,-0.03 0.04,-0.06 0.07,-0.09 0,-0.01 0.02,-0.03 0.03,-0.05l0.09 -0.15c0.03,-0.07 0.06,-0.14 0.09,-0.22 0.03,-0.08 0.05,-0.15 0.07,-0.23 0,-0.04 0.02,-0.1 0,-0.14 -0.01,-0.02 -0.05,-0.06 -0.09,-0.04z"/>
  </g>
 </g>
</svg>
