<svg width="301" height="353" viewBox="0 0 301 353" fill="none" xmlns="http://www.w3.org/2000/svg">
<g filter="url(#filter0_d_1510_140)">
<path d="M29.4455 67.1019C23.4031 134.653 20.4256 171.496 18.9774 227.495C21.0555 249.249 25.0088 258.649 40.7265 266.74C103.969 293.948 148.093 314.892 199.858 334.566C221.672 336.849 230.156 332.183 238.707 320.397C256.292 277.203 264.816 228.525 281.419 167.357C285.665 143.49 282.169 133.123 264.492 120.424C198.655 82.2196 102.628 29.2299 102.628 29.2299C102.628 29.2299 84.4884 17.4305 72.7544 18.3456C58.8508 20.8131 52.4389 24.7036 44.0322 33.1819C34.3018 43.21 31.133 50.6469 29.4455 67.1019Z" fill="#003399"/>
</g>
<path d="M32.8123 68.4332C35.4581 136.203 37.2165 173.123 42.9415 228.848C47.7844 250.158 52.9073 258.975 69.5306 264.989C135.733 283.886 182.174 299.016 236.029 311.909C257.956 311.383 265.774 305.671 272.748 292.888C284.664 247.799 286.893 198.431 295.538 135.643C296.697 111.428 291.904 101.593 272.747 91.2591C202.566 61.788 100.551 21.5134 100.551 21.5134C100.551 21.5134 81.0513 12.1307 69.5306 14.5388C56.0567 18.7641 50.195 23.4426 42.9415 32.9263C34.5734 44.1164 32.3817 51.8975 32.8123 68.4332Z" fill="white"/>
<defs>
<filter id="filter0_d_1510_140" x="1.56422" y="0.881727" width="298.901" height="351.659" filterUnits="userSpaceOnUse" color-interpolation-filters="sRGB">
<feFlood flood-opacity="0" result="BackgroundImageFix"/>
<feColorMatrix in="SourceAlpha" type="matrix" values="0 0 0 0 0 0 0 0 0 0 0 0 0 0 0 0 0 0 127 0" result="hardAlpha"/>
<feOffset/>
<feGaussianBlur stdDeviation="8.7066"/>
<feComposite in2="hardAlpha" operator="out"/>
<feColorMatrix type="matrix" values="0 0 0 0 0 0 0 0 0 0 0 0 0 0 0 0 0 0 0.1 0"/>
<feBlend mode="normal" in2="BackgroundImageFix" result="effect1_dropShadow_1510_140"/>
<feBlend mode="normal" in="SourceGraphic" in2="effect1_dropShadow_1510_140" result="shape"/>
</filter>
</defs>
</svg>
