<svg width="226" height="226" viewBox="0 0 226 226" fill="none" xmlns="http://www.w3.org/2000/svg">
<g clip-path="url(#clip0_423_38)">
<path d="M163.952 113.546C163.637 132.554 161.303 151.06 153.541 167.862C150.447 174.566 146.066 180.844 141.204 185.899C134.674 192.689 126.838 193.639 118.928 188.169C100.709 175.592 82.4899 163.015 64.1876 150.601C62.1684 149.236 59.6305 148.417 57.2964 148.297C48.0434 147.828 38.7811 147.828 29.5281 147.489C14.6991 146.944 2.82487 131.833 2.76003 113.557C2.69519 95.8152 14.6065 80.3445 29.1761 79.7113C38.1142 79.3182 47.0801 79.7331 56.0275 79.351C58.7877 79.2309 61.8164 78.281 64.2061 76.6543C81.4062 64.9066 98.4581 52.8642 115.593 40.9747C127.968 32.3932 137.675 34.413 147.03 47.449C156.023 59.9608 159.886 75.0275 162.062 90.782C163.109 98.2826 163.35 105.947 163.952 113.546ZM153.773 113.502C152.504 104.222 151.651 94.8216 149.864 85.6834C147.974 76.0538 144.362 67.1557 138.175 60.1464C130.126 51.03 120.484 50.5606 112.796 59.9172C108.73 64.863 105.247 71.0752 103.034 77.4622C96.1795 97.2017 95.6145 117.684 99.8289 138.373C102.015 149.105 105.47 159.15 112.305 167.032C120.317 176.28 129.867 176.607 137.61 167.327C141.102 163.146 144.084 158.047 146.335 152.785C151.559 140.557 153.004 127.237 153.773 113.502Z" fill="white"/>
<path d="M32.8161 155.525C41.0133 155.525 48.9696 155.525 57.4631 155.525C57.4631 160.995 57.4816 166.203 57.4631 171.411C57.3983 183.759 57.4538 196.118 57.1945 208.466C57.0092 217.266 53.9619 220.541 46.6077 220.607C44.9127 220.628 43.2084 220.661 41.5227 220.552C35.8542 220.159 33.0292 217.582 32.918 210.933C32.6309 192.613 32.8161 174.293 32.8161 155.525Z" fill="white"/>
<path d="M200.047 117.935C194.212 117.935 188.367 117.891 182.532 117.957C180.068 117.989 178.401 117.323 178.271 113.851C178.142 110.303 179.809 109.539 182.273 109.539C194.258 109.539 206.243 109.441 218.229 109.593C220.442 109.626 223.425 109.113 223.286 113.83C223.156 118.393 220.341 117.836 218.034 117.891C212.032 118.044 206.04 117.935 200.047 117.935Z" fill="white"/>
<path d="M187.348 13.1123C193.563 16.1802 193.61 16.213 190.84 22.0104C185.274 33.6707 179.698 45.3309 174.038 56.9257C171.232 62.6795 170.222 62.7013 165.563 57.1659C172.788 42.5578 180.087 27.7968 187.348 13.1123Z" fill="white"/>
<path d="M165.499 169.871C170.843 164.445 171.093 164.412 174.159 170.69C179.994 182.612 185.663 194.644 191.498 206.555C192.767 209.143 193.156 211.119 190.544 212.789C188.182 214.307 186.941 213.095 185.774 210.726C179.059 197.122 172.297 183.551 165.499 169.871Z" fill="white"/>
<path d="M176.715 134.41C189.793 143.45 201.594 151.529 213.264 159.859C214.107 160.46 214.653 163.681 214.098 164.489C213.246 165.711 210.819 166.934 209.911 166.345C198.63 158.997 187.45 151.431 176.363 143.679C171.927 140.579 176.734 138.493 176.715 134.41Z" fill="white"/>
<path d="M212.282 59.5352C213.125 60.9654 214.292 62.2537 214.663 63.804C214.894 64.7757 214.237 66.6645 213.486 67.2541C209.652 70.2456 205.687 73.0187 201.695 75.7154C194.776 80.3992 187.811 84.9738 180.874 89.6248C178.817 91.0005 176.984 91.7101 175.4 88.6859C173.76 85.5415 175.307 84.144 177.363 82.7684C188.024 75.5953 198.657 68.3786 209.309 61.1947C210.096 60.6488 210.948 60.2667 212.282 59.5352Z" fill="white"/>
<path d="M110.184 113.393C110.832 106.416 111.462 99.7455 112.074 93.0747C112.314 90.4326 113.231 89.3626 115.732 89.843C126.56 91.9174 134.785 101.951 134.859 113.447C134.933 124.857 127.023 134.934 116.501 137.128C113.88 137.674 112.314 137.237 112.027 133.733C111.453 126.866 110.786 120.009 110.184 113.393Z" fill="white"/>
</g>
<defs>
<clipPath id="clip0_423_38">
<rect width="226" height="226" fill="white"/>
</clipPath>
</defs>
</svg>
