<svg width="67" height="67" viewBox="0 0 67 67" fill="none" xmlns="http://www.w3.org/2000/svg">
<path d="M45.692 0C39.3632 0 34.1104 4.39855 33.5013 9.97161H39.1206C39.6774 7.13885 42.3788 5.02366 45.692 5.02366C49.4158 5.02366 52.3752 7.69428 52.3752 11.0537V15.2559H33.4397C31.8598 15.5996 30.692 16.9698 30.692 18.5034V39.0791C30.692 40.878 32.2967 42.3266 34.2919 42.3266H57.094C59.0886 42.3266 60.6939 40.878 60.6939 39.0784V18.5034C60.6939 16.9691 59.5241 15.6994 57.9443 15.3551V11.0537C57.9443 4.97877 52.4255 0 45.692 0ZM45.692 22.2393C47.7844 22.2393 49.4808 23.846 49.4808 25.8278C49.4788 27.0955 48.7706 28.2686 47.6182 28.9132L49.0567 32.3436C49.5358 33.4866 48.9381 34.9164 47.9794 34.9164H43.4046C42.9832 34.915 42.5912 34.6202 42.3621 34.1332C42.2352 33.8527 42.1666 33.5495 42.1603 33.2418C42.1539 32.9341 42.21 32.6283 42.3252 32.3429L43.7657 28.9132C42.6133 28.2686 41.9065 27.0955 41.9051 25.8278C41.9051 23.846 43.6002 22.2393 45.692 22.2393V22.2393Z" fill="#003399"/>
<path fill-rule="evenodd" clip-rule="evenodd" d="M1.73262 3.35158C1.50797 3.34384 1.28406 3.38141 1.07423 3.46203C0.8644 3.54266 0.672946 3.66469 0.511272 3.82086C0.349597 3.97703 0.221012 4.16415 0.133175 4.37106C0.0453378 4.57798 4.67877e-05 4.80045 0 5.02524L0 52.1195C5.35657e-05 52.4388 0.0913373 52.7514 0.263099 53.0205C0.434861 53.2896 0.679947 53.504 0.96949 53.6384L22.1857 63.4941C22.4069 63.597 22.6479 63.6503 22.8919 63.6503C23.1358 63.6503 23.3769 63.597 23.5981 63.4941L44.1088 53.9667L64.6195 63.4941C65.7297 64.01 67 63.1993 67 61.9752V14.8809C66.9999 14.5617 66.9087 14.2491 66.7369 13.98C66.5651 13.7109 66.3201 13.4965 66.0305 13.362L63.65 11.9229V59.3502L45.1057 50.736L45.0722 44.8835H43.0622L43.0957 50.742L23.8828 59.6684L23.6356 16.3824L30.5373 13.1765C30.4291 11.9065 30.504 10.6276 30.7597 9.3789L22.8912 13.0337L2.38051 3.50635C2.17709 3.4119 1.95677 3.35927 1.73262 3.35158V3.35158ZM3.35 7.6503L21.6243 16.1392L21.8728 59.6557L3.35 51.0489V7.6503Z" fill="#003399"/>
</svg>
