<svg width="22" height="21" viewBox="0 0 22 21" fill="none" xmlns="http://www.w3.org/2000/svg">
<path d="M15.7391 1.70813H6.89856C4.4573 1.70813 2.47827 3.62008 2.47827 5.97858V14.5195C2.47827 16.878 4.4573 18.7899 6.89856 18.7899H15.7391C18.1804 18.7899 20.1594 16.878 20.1594 14.5195V5.97858C20.1594 3.62008 18.1804 1.70813 15.7391 1.70813Z" stroke="#003399" stroke-linecap="round" stroke-linejoin="round"/>
<path d="M14.855 9.71102C14.9641 10.4218 14.8385 11.1478 14.4959 11.7856C14.1533 12.4234 13.6113 12.9407 12.9469 13.2638C12.2825 13.5868 11.5296 13.6993 10.7952 13.5851C10.0609 13.4709 9.38249 13.136 8.85654 12.6279C8.3306 12.1198 7.98388 11.4644 7.86572 10.7549C7.74755 10.0454 7.86395 9.31804 8.19835 8.67618C8.53276 8.03431 9.06814 7.51066 9.72835 7.1797C10.3886 6.84874 11.14 6.72733 11.8757 6.83273C12.6262 6.94025 13.321 7.27811 13.8575 7.79641C14.394 8.31471 14.7437 8.98596 14.855 9.71102Z" stroke="#003399" stroke-linecap="round" stroke-linejoin="round"/>
<path d="M16.1812 5.55164H16.1901" stroke="#003399" stroke-linecap="round" stroke-linejoin="round"/>
</svg>
