<svg width="227" height="226" viewBox="0 0 227 226" fill="none" xmlns="http://www.w3.org/2000/svg">
<g clip-path="url(#clip0_423_25)">
<path d="M147.192 17.115C146.825 17.1814 146.462 17.2714 146.106 17.3845H8.93263C8.66042 17.3717 8.38776 17.3717 8.11555 17.3845C5.95462 17.5885 3.9482 18.5936 2.49085 20.2022C1.03351 21.8107 0.230711 23.9063 0.24032 26.0768V164.884C0.24032 185.442 11.7055 198.072 22.5187 203.452C33.3232 208.833 43.7019 208.615 43.7019 208.615H183.596C183.686 208.617 183.776 208.617 183.865 208.615C185.386 208.615 194.087 208.389 203.971 203.452C214.28 198.298 225.067 186.424 225.962 167.596C225.968 167.417 225.968 167.237 225.962 167.057C225.98 166.866 226.232 166.71 226.24 166.51C226.276 166.058 226.276 165.605 226.24 165.154C226.253 164.882 226.253 164.609 226.24 164.337V69.8078C226.242 69.718 226.242 69.6282 226.24 69.5383C226.24 69.5383 226.206 63.4363 222.981 57.0388C220.051 51.241 213.011 44.8696 203.154 43.7396C202.197 43.3798 201.185 43.1915 200.163 43.1833H156.702V27.7023C156.753 27.1616 156.753 26.6174 156.702 26.0768C156.725 25.715 156.725 25.3521 156.702 24.9903C156.708 24.8078 156.708 24.6251 156.702 24.4427C156.703 24.3557 156.703 24.2688 156.702 24.1819C156.618 23.9962 156.529 23.8136 156.432 23.6343C156.434 23.5445 156.434 23.4546 156.432 23.3648C156.353 23.088 156.26 22.8153 156.154 22.5477C155.99 22.2655 155.81 21.9927 155.615 21.7307C155.385 21.2547 155.111 20.8009 154.798 20.3747C154.539 20.1771 154.269 19.9943 153.99 19.827C153.66 19.4335 153.297 19.0699 152.903 18.7405C152.811 18.739 152.718 18.739 152.625 18.7405C151.726 18.1037 150.714 17.6435 149.644 17.3845C148.844 17.1786 148.018 17.0879 147.192 17.115V17.115ZM17.6249 34.7691H139.317V49.9807C139.076 51.1447 139.076 52.3457 139.317 53.5097V164.893C139.317 176.019 142.846 184.668 147.74 191.239H43.7019C43.7019 191.239 39.7556 191.257 35.0096 189.883C33.3249 189.396 31.6871 188.759 30.1158 187.98C23.5444 184.703 17.6249 179.757 17.6249 164.884V34.7691ZM35.0096 52.1537C30.2201 52.1537 26.3172 56.0566 26.3172 60.846V78.2307C26.3172 83.0201 30.2201 86.923 35.0096 86.923H121.933C126.722 86.923 130.625 83.0201 130.625 78.2307V60.846C130.625 56.0566 126.722 52.1537 121.933 52.1537H35.0096ZM156.702 60.5766H175.721C174.095 65.34 174.086 69.2689 174.086 69.2689C174.085 69.3587 174.085 69.4485 174.086 69.5383V156.461C174.086 158.767 175.002 160.978 176.632 162.608C178.263 164.238 180.473 165.154 182.779 165.154C185.084 165.154 187.295 164.238 188.925 162.608C190.555 160.978 191.471 158.767 191.471 156.461V69.5383C191.488 69.295 191.688 67.148 192.827 64.9227C194.035 62.5758 194.644 60.846 200.163 60.846C205.64 60.846 206.274 62.4976 207.5 64.9227C208.656 67.2262 208.838 69.5644 208.856 69.8078V165.154C208.843 165.426 208.843 165.699 208.856 165.971C208.621 179.774 202.841 184.459 196.356 187.702C189.75 191.005 182.779 191.231 182.779 191.231C182.779 191.231 175.825 191.048 169.193 187.702C162.569 184.355 156.702 179.435 156.702 164.884V60.5766V60.5766ZM32.567 104.308C30.2617 104.631 28.1794 105.858 26.7783 107.717C25.3772 109.576 24.7721 111.916 25.096 114.221C25.4199 116.526 26.6463 118.609 28.5055 120.01C30.3646 121.411 32.7042 122.016 35.0096 121.692H61.0865C63.3918 121.692 65.6027 120.776 67.2329 119.146C68.863 117.516 69.7788 115.305 69.7788 113C69.7788 110.695 68.863 108.484 67.2329 106.853C65.6027 105.223 63.3918 104.308 61.0865 104.308H35.0096C34.7373 104.295 34.4647 104.295 34.1925 104.308C33.9203 104.295 33.6476 104.295 33.3754 104.308C33.1061 104.295 32.8363 104.295 32.567 104.308V104.308ZM84.7209 104.308C82.4155 104.631 80.3333 105.858 78.9322 107.717C77.5311 109.576 76.9259 111.916 77.2498 114.221C77.5737 116.526 78.8002 118.609 80.6593 120.01C82.5185 121.411 84.8581 122.016 87.1634 121.692H121.933C124.238 121.692 126.449 120.776 128.079 119.146C129.709 117.516 130.625 115.305 130.625 113C130.625 110.695 129.709 108.484 128.079 106.853C126.449 105.223 124.238 104.308 121.933 104.308H87.1634C86.8912 104.295 86.6185 104.295 86.3463 104.308C86.0741 104.295 85.8015 104.295 85.5292 104.308C85.2599 104.295 84.9902 104.295 84.7209 104.308V104.308ZM32.567 130.384C30.2617 130.708 28.1794 131.935 26.7783 133.794C25.3772 135.653 24.7721 137.993 25.096 140.298C25.4199 142.603 26.6463 144.686 28.5055 146.087C30.3646 147.488 32.7042 148.093 35.0096 147.769H61.0865C63.3918 147.769 65.6027 146.853 67.2329 145.223C68.863 143.593 69.7788 141.382 69.7788 139.077C69.7788 136.771 68.863 134.561 67.2329 132.93C65.6027 131.3 63.3918 130.384 61.0865 130.384H35.0096C34.7373 130.372 34.4647 130.372 34.1925 130.384C33.9203 130.372 33.6476 130.372 33.3754 130.384C33.1061 130.372 32.8363 130.372 32.567 130.384V130.384ZM84.7209 130.384C82.4155 130.708 80.3333 131.935 78.9322 133.794C77.5311 135.653 76.9259 137.993 77.2498 140.298C77.5737 142.603 78.8002 144.686 80.6593 146.087C82.5185 147.488 84.8581 148.093 87.1634 147.769H121.933C124.238 147.769 126.449 146.853 128.079 145.223C129.709 143.593 130.625 141.382 130.625 139.077C130.625 136.771 129.709 134.561 128.079 132.93C126.449 131.3 124.238 130.384 121.933 130.384H87.1634C86.8912 130.372 86.6185 130.372 86.3463 130.384C86.0741 130.372 85.8015 130.372 85.5292 130.384C85.2599 130.372 84.9902 130.372 84.7209 130.384V130.384ZM36.9132 156.461C34.6078 156.785 32.5256 158.012 31.1245 159.871C29.7234 161.73 29.1182 164.07 29.4421 166.375C29.766 168.68 30.9925 170.763 32.8516 172.164C34.7108 173.565 37.0504 174.17 39.3557 173.846H61.0865C63.3918 173.846 65.6027 172.93 67.2329 171.3C68.863 169.67 69.7788 167.459 69.7788 165.154C69.7788 162.848 68.863 160.637 67.2329 159.007C65.6027 157.377 63.3918 156.461 61.0865 156.461H39.3557C39.0835 156.449 38.8108 156.449 38.5386 156.461C38.2693 156.449 37.9996 156.449 37.7302 156.461C37.458 156.449 37.1854 156.449 36.9132 156.461ZM84.7209 156.461C82.4155 156.785 80.3333 158.012 78.9322 159.871C77.5311 161.73 76.9259 164.07 77.2498 166.375C77.5737 168.68 78.8002 170.763 80.6593 172.164C82.5185 173.565 84.8581 174.17 87.1634 173.846H121.933C124.238 173.846 126.449 172.93 128.079 171.3C129.709 169.67 130.625 167.459 130.625 165.154C130.625 162.848 129.709 160.637 128.079 159.007C126.449 157.377 124.238 156.461 121.933 156.461H87.1634C86.8912 156.449 86.6185 156.449 86.3463 156.461C86.0741 156.449 85.8015 156.449 85.5292 156.461C85.2599 156.449 84.9902 156.449 84.7209 156.461V156.461Z" fill="white"/>
</g>
<defs>
<clipPath id="clip0_423_25">
<rect width="226" height="226" fill="white" transform="translate(0.240234)"/>
</clipPath>
</defs>
</svg>
